<ttFont>
          <CharString index="0">
            526 -106 callgsubr
            return
          </CharString>
          <CharString index="1">
            vlineto
            -107 callgsubr
            return
          </CharString>
          <CharString index="2">
            -105 callgsubr
            endchar
          </CharString>
          <CharString index="3">
            473 -20 rmoveto
            92 63 85 124 103 -32 92 -60 70 hvcurveto
            -14 11 -15 8 -23 9 -17 -18 rcurveline
            57 -68 25 -74 1 -105 rrcurveto
            -92 1 -32 -55 -57 hhcurveto
            -46 -36 25 45 -18 hvcurveto
            25 151 -13 21 -34 5 -40 -3 -29 -10 rlinecurve
            25 -164 rlineto
            -47 -22 -40 -23 -58 hhcurveto
            -29 -25 10 18 -17 hvcurveto
            -10 19 -5 23 27 vvcurveto
            return
          </CharString>
          <CharString index="4">
            9 20 -75 callsubr
            return
          </CharString>
          <CharString index="5">
            -103 callgsubr
            268 hlineto
            return
          </CharString>
          <CharString index="6">
            rmoveto
            -102 callgsubr
            return
          </CharString>
          <CharString index="7">
            -92 callgsubr
            -282 hlineto
            -48 -90 -119 -20 -62 27 rrcurveto
            return
          </CharString>
          <CharString index="8">
            59 -88 callgsubr
            return
          </CharString>
          <CharString index="9">
            253 -20 rmoveto
            118 85 105 147 86 -22 80 -38 57 hvcurveto
            -12 10 -16 9 -21 9 -17 -18 rcurveline
            26 -52 18 -68 -74 vvcurveto
            -133 -50 -68 -90 -42 -40 14 21 -16 vhcurveto
            17 58 rlineto
            22 116 9 60 39 vvcurveto
            return
          </CharString>
          <CharString index="10">
            110 185 rlineto
            18 vlineto
            -21 18 -28 14 -32 1 rrcurveto
            return
          </CharString>
          <CharString index="11">
            vlineto
            -78 callgsubr
            return
          </CharString>
          <CharString index="12">
            89 44 89 65 43 vhcurveto
            4 23 -5 24 -27 35 -22 10 rlinecurve
            -71 -60 -46 -112 -115 vvcurveto
            -121 64 -92 85 63 49 41 76 29 vhcurveto
            4 hlineto
            return
          </CharString>
          <CharString index="13">
            hlineto
            -103 callsubr
            return
          </CharString>
          <CharString index="14">
            rmoveto
            188 callgsubr
          </CharString>
          <CharString index="15">
            -70 callsubr
            hstemhm
            return
          </CharString>
          <CharString index="16">
            -45 callsubr
            229 323 -224 -57 callsubr
            return
          </CharString>
          <CharString index="17">
            -84 callgsubr
            203 hmoveto
            -101 callgsubr
            return
          </CharString>
          <CharString index="18">
            hlineto
            -107 callgsubr
            return
          </CharString>
          <CharString index="19">
            rmoveto
            24 32 24 26 10 hvcurveto
            -8 25 -64 -10 31 109 -14 11 rlineto
            -27 -28 -4 -7 -14 hvcurveto
            5 -94 rlineto
            -51 3 19 -29 31 hhcurveto
            return
          </CharString>
          <CharString index="20">
            93 319 574 callsubr
            -76 callgsubr
            return
          </CharString>
          <CharString index="21">
            1 47 -73 8 -254 619 rlineto
            -149 -412 rmoveto
            110 282 112 -282 rlineto
            return
          </CharString>
          <CharString index="22">
            -52 callsubr
            -35 callsubr
            return
          </CharString>
          <CharString index="23">
            233 -20 rmoveto
            127 96 118 154 138 -84 98 -117 -127 -96 -118 -154 -138 84 -98 117 hvcurveto
            -21 90 rmoveto
            -30 -36 6 16 -26 hvcurveto
            -15 28 -7 33 37 vvcurveto
            118 69 90 109 30 36 -6 -16 26 vhcurveto
            15 -28 7 -33 -37 vvcurveto
            -118 -69 -90 -109 vhcurveto
            return
          </CharString>
          <CharString index="24">
            -26 -15 262 callgsubr
            hstemhm
            87 89 206 89 hintmask 01011100
            192 -15 rmoveto
            39 84 29 45 70 hvcurveto
            13 -36 39 -36 20 -2 101 46 rcurveline
            -15 callgsubr
            hintmask 10101100
            -52 callgsubr
            hintmask 01011100
            16 -25 34 -31 38 -9 rrcurveto
            return
          </CharString>
          <CharString index="25">
            vlineto
            29 9 30 10 26 12 rrcurveto
            return
          </CharString>
          <CharString index="26">
            52 40 -6 35 -13 24 -35 17 rlinecurve
            return
          </CharString>
          <CharString index="27">
            -45 callgsubr
            233 vlineto
            70 -3 17 -9 17 vhcurveto
            28 -15 -49 42 -43 hhcurveto
            -41 120 callgsubr
            -45 18 -33 496 callsubr
            104 119 callsubr
            13 -27 -62 vvcurveto
            -103 vlineto
            return
          </CharString>
          <CharString index="28">
            -87 6 -21 22 -21 178 49.5 212.5 67 411 callsubr
            166 90 hintmask 10110110
            391 -15 rmoveto
            101 46 -80 callsubr
            hintmask 01111010
            565 callgsubr
            -58 47 -72 110 12 vhcurveto
            hintmask 10110010
            113 68 rlineto
            hintmask 10110110
            14 -34 38 -33 19 -2 rrcurveto
            return
          </CharString>
          <CharString index="29">
            385 callsubr
            229 callsubr
            hvcurveto
            -68 callgsubr
            return
          </CharString>
          <CharString index="30">
            rmoveto
            20 29 -37 34 -15 22 -4 35 rlinecurve
            return
          </CharString>
          <CharString index="31">
            173 -100 callsubr
            return
          </CharString>
          <CharString index="32">
            -30 50 rlineto
            return
          </CharString>
          <CharString index="33">
            10 20 -49 58 -55 8 -43 -7 -33 -16 rlinecurve
            -54 38 -20 38 32 vvcurveto
            49 46 32 46 -12 vhcurveto
            34 -26 22 -36 22 -45 40 22 rcurveline
            112 -46 -57 43 -67 hhcurveto
            return
          </CharString>
          <CharString index="34">
            -64 219 -32 -1 -28 -14 -21 -18 rlinecurve
            return
          </CharString>
          <CharString index="35">
            248 -20 rmoveto
            117 101 84 166 163 -97 95 -123 131 callgsubr
            hvcurveto
            11 65 rmoveto
            -101 -43 97 105 55 12 60 35 42 hvcurveto
            12 17 28 10 31 hhcurveto
            96 38 -98 -109 -53 -9 -77 -56 -37 hvcurveto
            -5 -18 -16 -2 -14 hhcurveto
            return
          </CharString>
          <CharString index="36">
            268 -49 callsubr
            return
          </CharString>
          <CharString index="37">
            70 -20 20 return
          </CharString>
          <CharString index="38">
            -9 rlineto
            -531 -57 callsubr
            return
          </CharString>
          <CharString index="39">
            -4 -35 -15 -22 -37 -34 rrcurveto
            return
          </CharString>
          <CharString index="40">
            -73 callgsubr
            6 -32 rcurveline
            return
          </CharString>
          <CharString index="41">
            59 -34 45 -44 -33 -45 -35 -44 -23 vhcurveto
            16 -28 86 12 rlineto
            -24 -157 -3 -26 -49 vvcurveto
            return
          </CharString>
          <CharString index="42">
            56 callsubr
            hstem
            20 94 vstem
            199 427 rmoveto
            72 5 57 -44 13 -63 -219 -10 rcurveline
            11 46 24 44 42 22 rrcurveto
            66 -442 178 callsubr
            return
          </CharString>
          <CharString index="43">
            rmoveto
            77 -69 callsubr
            return
          </CharString>
          <CharString index="44">
            -73 callsubr
            -155 -174 -105 callsubr
          </CharString>
          <CharString index="45">
            vlineto
            -99 callsubr
            546 -106 callgsubr
            return
          </CharString>
          <CharString index="46">
            -33 callsubr
            234.5 70 241.5 -47 callgsubr
            return
          </CharString>
          <CharString index="47">
            -6 32 rlineto
            -248 409 callgsubr
            return
          </CharString>
          <CharString index="48">
            529 -82 callsubr
            return
          </CharString>
          <CharString index="49">
            -31 0 70 -70 181 108 73.5 222 114 callsubr
            return
          </CharString>
          <CharString index="50">
            vlineto
            -56 callsubr
            return
          </CharString>
          <CharString index="51">
            -67 callsubr
            -71 callsubr
            return
          </CharString>
          <CharString index="52">
            rmoveto
            42 -25 45 49 64 107 -82 49 rlinecurve
            -62 -40 2 -25 39 -28 -10 -37 -38 -50 rlinecurve
            endchar
          </CharString>
          <CharString index="53">
            171 callsubr
            hintmask 10101010
            -32 callgsubr
            hintmask 01101010
            73 callsubr
            hintmask 10101010
            -26 -108 -227 -10 rlineto
            229 vlineto
            hintmask 10101001
            229 -10 rlineto
            87 vlineto
            hintmask 10110010
            412 callsubr
            238 vlineto
            218 -15 12 -92 rlineto
            54 hlineto
            return
          </CharString>
          <CharString index="54">
            -16 21 -7 19 -6 24 rrcurveto
            97 10 53 42 49 vvcurveto
            65 -94 86 -93 vhcurveto
            return
          </CharString>
          <CharString index="55">
            -18 callgsubr
            -28 callgsubr
            return
          </CharString>
          <CharString index="56">
            rmoveto
            71 -4 rlineto
            -535 259 callsubr
            466 hlineto
            return
          </CharString>
          <CharString index="57">
            469 callgsubr
            -217 hlineto
            -38 -29 -60 -5 -56 23 -13 13 -16 13 -19 11 rrcurveto
            43 35 19 44 39 vvcurveto
            return
          </CharString>
          <CharString index="58">
            hlineto
            -32 callsubr
            return
          </CharString>
          <CharString index="59">
            25 34 rlineto
            -28 18 -26 22 31 vvcurveto
            35 32 37 52 -10 vhcurveto
            29 -20 15 -36 -32 vvcurveto
            return
          </CharString>
          <CharString index="60">
            68 53 48 33 49 hhcurveto
            52 18 -37 -33 -59 -56 -56 -87 -61 hvcurveto
            61 -69 rlineto
            88 59 59 72 85 vvcurveto
            95 -74 78 -85 -47 -44 -24 -34 -35 vhcurveto
            157 100 callsubr
            return
          </CharString>
          <CharString index="61">
            hlineto
            hintmask 01110100
            -51 callgsubr
            hintmask 10110100
            7 callgsubr
          </CharString>
          <CharString index="62">
            30 32 392 callgsubr
            -71 callsubr
            return
          </CharString>
          <CharString index="63">
            -42 -1 -54 -12 -40 -18 rlinecurve
            return
          </CharString>
          <CharString index="64">
            -6 32 rlineto
            -248 hlineto
            return
          </CharString>
          <CharString index="65">
            -18 callgsubr
            103 21 79 69 82 vvcurveto
            110 -3 -89 73 -79 hhcurveto
            return
          </CharString>
          <CharString index="66">
            162 callsubr
            221 7 61 19 hintmask 11101000
            -65 callgsubr
            hintmask 11011100
            -70 callgsubr
            hintmask 11101000
            163 callgsubr
            return
          </CharString>
          <CharString index="67">
            rmoveto
            110 -185 35 17 return
          </CharString>
          <CharString index="68">
            74 callgsubr
            261 callsubr
            return
          </CharString>
          <CharString index="69">
            -1 -38 80 326 447 callgsubr
            102 73 234 78 -21 74 156 callgsubr
            409 181 callsubr
            hintmask 11101010
            -66 48 -50 -100 -120 hhcurveto
            -81 -88 46 138 -85 hvcurveto
            -37 -27 rlineto
            -185 121 106 -52 97 hhcurveto
            191 callsubr
            hintmask 11101100
            419 callsubr
            return
          </CharString>
          <CharString index="70">
            rmoveto
            213 186 callsubr
            -263 hlineto
            -35 -30 -38 -13 -34 hhcurveto
            -44 -37 22 38 -18 hvcurveto
            return
          </CharString>
          <CharString index="71">
            133 callgsubr
            -51 -50 -33 -56 -35 19 -48 85 -53 hvcurveto
            26 35 -87 48 30 91 76 -7 rlinecurve
            31 -23 5 -31 -38 vvcurveto
            return
          </CharString>
          <CharString index="72">
            53 -34 43 -56 40 vhcurveto
            return
          </CharString>
          <CharString index="73">
            -58 callgsubr
            -73 -77 -54 -117 -11 vhcurveto
            return
          </CharString>
          <CharString index="74">
            52.5 return
          </CharString>
          <CharString index="75">
            1 47 -97 11 rlineto
            return
          </CharString>
          <CharString index="76">
            rmoveto
            21 15 24 30 9 24 -14 18 -29 27 -25 10 -20 -13 -23 -29 -13 -27 15 -21 32 -25 23 -9 rrcurveto
            return
          </CharString>
          <CharString index="77">
            27 26 33 85 56 hvcurveto
            -28 25 -84 -70 rlineto
            55 -106 -56 31 -33 hhcurveto
            -38 -34 -44 -69 -46 hvcurveto
            36 -28 rlineto
            39 35 27 24 19 35 122 -81 42 hhcurveto
            return
          </CharString>
          <CharString index="78">
            550 callsubr
            120 callsubr
            return
          </CharString>
          <CharString index="79" raw="1">
            9e19f712 0af73e2b 0a0b 
          </CharString>
          <CharString index="80">
            -91 callgsubr
            44 242 -90 callgsubr
          </CharString>
          <CharString index="81">
            -331 20 callgsubr
            return
          </CharString>
          <CharString index="82">
            -39 callsubr
            250 vlineto
            return
          </CharString>
          <CharString index="83">
            rmoveto
            -18 11 -8 17 18 vvcurveto
            63 97 4 74 -7 vhcurveto
            -69 vlineto
            -35 -16 -60 -23 -50 2 rrcurveto
            endchar
          </CharString>
          <CharString index="84">
            -88 callsubr
            endchar
          </CharString>
          <CharString index="85">
            -49 -64 -85 -31 -64 38 rrcurveto
            return
          </CharString>
          <CharString index="86">
            rmoveto
            54 hlineto
            hintmask 10101000
            65 callgsubr
            hintmask 10011000
            373 530 rlineto
            hintmask 10101000
            -21 46 rlineto
            -447 hlineto
            hintmask 11001000
            -3 -33 2 -88 11 -61 rrcurveto
            return
          </CharString>
          <CharString index="87">
            96 callsubr
            -149 -412 rmoveto
            110 282 112 -282 rlineto
            return
          </CharString>
          <CharString index="88">
            rmoveto
            14 -37 rlineto
            211 hlineto
            11 67 -155 -21 -2 6 rlineto
            93 69 49 55 53 vvcurveto
            47 -37 49 -73 -41 -36 -15 -19 -29 vhcurveto
            -2 -25 3 -35 5 -25 rrcurveto
            40 hlineto
            16 75 rlineto
            3 13 11 1 8 hhcurveto
            31 26 -20 -37 -15 -4 -25 -62 -62 hvcurveto
            endchar
          </CharString>
          <CharString index="89">
            -39 callgsubr
            -51 return
          </CharString>
          <CharString index="90">
            -34 callsubr
            endchar
          </CharString>
          <CharString index="91">
            62 -7 186 -344 rlineto
            -191 vlineto
            -27 -9 -27 -9 -24 -11 6 -32 rcurveline
            246 hlineto
            1 47 -82 10 rlineto
            192 vlineto
            hintmask 10011000
            185 343 25 7 24 9 22 10 rlinecurve
            hintmask 11001000
            264 callgsubr
            hintmask 10011000
            425 callgsubr
            hintmask 11001000
            -6 32 rlineto
            -227 hlineto
            return
          </CharString>
          <CharString index="92">
            90 221 21 168 -20 22 -20 return
          </CharString>
          <CharString index="93">
            -77 callgsubr
            322 -40 callgsubr
            return
          </CharString>
          <CharString index="94">
            68 -68 120 return
          </CharString>
          <CharString index="95">
            30 14 21 24 10 34 -6 32 -27 25 -40 15 -36 -18 -22 -27 -6 -38 14 -33 26 -21 36 -7 rrcurveto
            return
          </CharString>
          <CharString index="96">
            111 -101 114 -96 callgsubr
            return
          </CharString>
          <CharString index="97">
            rmoveto
            22 12 18 18 18 -12 18 -22 -23 -11 -18 -18 -18 11 -18 23 hvcurveto
            return
          </CharString>
          <CharString index="98">
            381 599 rmoveto
            54 -26 24 -50 -58 vvcurveto
            -64 -29 -83 -137 -23 -30 2 5 -32 vhcurveto
            259 333 callsubr
            278 hlineto
            1 47 -107 12 rlineto
            200 vlineto
            119 1 143 -260 rlineto
            152 hlineto
            return
          </CharString>
          <CharString index="99">
            93 -93 322 hintmask 1010100010000000
            -32 callgsubr
            hintmask 0110100010000000
            73 callsubr
            hintmask 1010100010000000
            -26 -108 -227 -10 rlineto
            229 vlineto
            hintmask 1010100001000000
            229 -10 rlineto
            87 vlineto
            hintmask 1011000010000000
            412 callsubr
            238 vlineto
            218 -15 12 -92 rlineto
            54 hlineto
            return
          </CharString>
          <CharString index="100">
            0 2 callsubr
            return
          </CharString>
          <CharString index="101">
            25 0 65 249 33 -33 54 -54 344 -74 74 -59 59 -58 58 384 callgsubr
            238 103 -73 108 hintmask 1010010110000000
            345 599 rmoveto
            59 -10 42 -51 -53 vvcurveto
            -59 -51 -58 -137 vhcurveto
            -50 hlineto
            hintmask 1100100101000000
            216 333 callsubr
            282 hlineto
            180 86 84 95 80 -62 75 -116 13 hvcurveto
            hintmask 1100000110000000
            100 11 43 67 67 vvcurveto
            hintmask 1001000110000000
            85 -69 81 -174 -82 -96 -4 -4 -83 vhcurveto
            hintmask 1000001101000000
            226 callgsubr
            hintmask 1100100101000000
            115 callgsubr
            278 29 rmoveto
            -100 8 rlineto
            hintmask 1001000101000000
            245 98 vlineto
            112 58 -71 -66 hvcurveto
            hintmask 1100100101000000
            -65 -54 -60 -114 9 vhcurveto
            endchar
          </CharString>
          <CharString index="102">
            307 0 52 -52 -33 callsubr
            -38.5 -21 605.5 -47 callgsubr
            hstemhm
            128.5 73 477.5 88.5 hintmask 01010110
            30 32 392 callgsubr
            244 hlineto
            hintmask 10010110
            1 47 -84 10 9 363 -19 157 rlineto
            hintmask 00110110
            211 -584 87 23 205 569 -14 -165 rlineto
            hintmask 01001110
            6 -357 -29 -9 -31 -10 -26 121 callgsubr
            268 hlineto
            1 47 -99 11 -9 533 26 8 25 8 23 11 rlinecurve
            hintmask 01010110
            -6 32 rlineto
            -183 hlineto
            -192 -542 -195 542 rlineto
            -201 hlineto
            -1 -47 79 -9 -19 -530 -30 -9 -32 -10 -27 -13 rlinecurve
            endchar
          </CharString>
          <CharString index="103">
            rmoveto
            175 -157 35 37 -115 109 rlineto
            57 -60 -27 14 -36 hhcurveto
            -34 -38 -12 -31 -45 hvcurveto
            59 -56 rlineto
            return
          </CharString>
          <CharString index="104">
            -76 71 58 121 158 -29 rrcurveto
            return
          </CharString>
          <CharString index="105">
            -112 6 -21 26 -21 312 166 -63 63 hstemhm
            50 64 hintmask 10011000
            30 21 rmoveto
            44 -36 rlineto
            hintmask 01011000
            38 34 322 -29 11 37 10 54 2 59 rlinecurve
            -51 7 -21 -76 -210 10 280 379 -34 30 -31 -22 rlineto
            -340 hlineto
            hintmask 01101000
            -5 -50 3 -66 11 -50 rrcurveto
            49 hlineto
            hintmask 01011000
            12 100 196 6 rlineto
            return
          </CharString>
          <CharString index="106">
            29 -38 rlineto
            74 41 46 66 62 vvcurveto
            37 -18 38 -54 22 vhcurveto
            -33 -14 -25 -32 -3 -34 52 -40 rcurveline
            -3 -37 -27 -44 -38 -27 rrcurveto
            return
          </CharString>
          <CharString index="107">
            136 -107 81 2 134 120 -40 52 -132 -108 -124 102 rlineto
            endchar
          </CharString>
          <CharString index="108">
            67 38 52 65 30 27 -11 -21 25 vhcurveto
            18 34 rlineto
            46 -26 -44 27 -46 hhcurveto
            -59 -61 -44 -76 -5 hvcurveto
            -22 76 -62 210 -145 -18 -82 -48 rlinecurve
            39 -82 105 47 65 -23 44 -128 rlinecurve
            64 -184 rlineto
            return
          </CharString>
          <CharString index="109">
            517 callsubr
            -32 32 return
          </CharString>
          <CharString index="110">
            -226 185 11 12 12 11 10 12 rlinecurve
            return
          </CharString>
          <CharString index="111">
            13 -21 -25 7 -26 hhcurveto
            -71 -74 -56 -95 return
          </CharString>
          <CharString index="112">
            -55 callgsubr
            14 callsubr
            return
          </CharString>
          <CharString index="113">
            rmoveto
            134 -144 81 2 119 158 -51 42 -106 -136 -114 135 rlineto
            endchar
          </CharString>
          <CharString index="114">
            64 64 28 43 32 hvcurveto
            -40 60 rlineto
            -32 -35 -51 -29 -67 hhcurveto
            -59 -43 22 40 -49 hvcurveto
            -23 -29 rlineto
            -64 44 89 -39 74 hhcurveto
            return
          </CharString>
          <CharString index="115">
            21 0 -33 callsubr
            531 70.5 -67 67 return
          </CharString>
          <CharString index="116">
            264 callsubr
            115 93 hintmask 11001000
            -64 callgsubr
            hintmask 10101000
            -59 callsubr
            hintmask 11001000
            -43 callsubr
            return
          </CharString>
          <CharString index="117">
            566 rmoveto
            35 -17 -97 callsubr
            return
          </CharString>
          <CharString index="118">
            -7 21 -21 108 54 241 callgsubr
            -288 hlineto
            -60 -83 -108 -20 -61 26 rrcurveto
            hintmask 11011100
            -215 415 rmoveto
            hintmask 11101100
            419 callgsubr
            -13 -36 486 callgsubr
            rlinecurve
            21 -13 22 -7 20 -4 -148 -108 rcurveline
            59 -46 261 198 rlineto
            -147 217 callsubr
            return
          </CharString>
          <CharString index="119">
            35 rmoveto
            24 24 4 9 24 hvcurveto
            41 -163 51 10 6 17 -55 159 25 20 21 29 4 18 rlinecurve
            -95 84 -35 -19 13 -72 rlineto
            hintmask 11101000
            -39 -23 -64 -13 -55 17 rrcurveto
            -34 26 -14 36 32 vvcurveto
            55 42 47 109 23 26 -2 -8 41 vhcurveto
            -4 79 rlineto
            10 -39 -38 3 -28 hhcurveto
            hintmask 11110000
            -37 -32 -6 -9 -27 hvcurveto
            -49 30 -13 35 27 vvcurveto
            53 50 31 71 50 46 -16 -25 44 vhcurveto
            76 vlineto
            30 -47 -59 12 -49 hhcurveto
            -112 -67 -64 -73 -54 36 -49 55 -35 hvcurveto
            hintmask 11101000
            -43 -31 -21 -44 -46 vvcurveto
            -64 39 -53 58 -38 vhcurveto
            hintmask 11110000
            -28 42 46 -14 45 hhcurveto
            endchar
          </CharString>
          <CharString index="120">
            rmoveto
            52 -43 56 52 47 41 60 50 rlinecurve
            -73 60 rlineto
            return
          </CharString>
          <CharString index="121">
            12 -47 75 6 rlineto
            return
          </CharString>
          <CharString index="122">
            -204 -21 174 11 40 return
          </CharString>
          <CharString index="123">
            -101 145 -109 -18 -77 -64 rlinecurve
            47 -77 89 57 64 -3 62 -87 rlinecurve
            return
          </CharString>
          <CharString index="124">
            51 -51 53 148 61 return
          </CharString>
          <CharString index="125">
            -14 callgsubr
            hstemhm
            115 93 hintmask 11010000
            return
          </CharString>
          <CharString index="126">
            102 0 17 callsubr
            return
          </CharString>
          <CharString index="127">
            -43 -219 47 -29 -21 229 -21 42 49 -43 43 225 callgsubr
            -6 69 152 83 hintmask 1011010101100000
            243 -172 rmoveto
            -38 17 -14 24 29 vvcurveto
            23 8 20 16 18 vhcurveto
            150 -82 -32 -33 -45 -18 -45 2 rlinecurve
            7 158 rmoveto
            34 20 47 14 60 8 18 -67 rcurveline
            -4 -19 -6 -16 -9 -15 rrcurveto
            -420 677 rmoveto
            hintmask 1010111010100000
            41 callsubr
            hintmask 1010111001100000
            9 -5 10 -5 9 -3 rrcurveto
            -46 -18 -39 -37 -55 vvcurveto
            -78 81 -65 96 return
          </CharString>
          <CharString index="128">
            -13 0 47 -47 61 -61 63 182 58 288.5 251 callsubr
            384 callgsubr
            251 102 hintmask 1001100110000000
            381 599 rmoveto
            52 -25 26 -58 -62 vvcurveto
            -76 -42 -75 -107 -19 -43 3 6 -40 vhcurveto
            272 333 callsubr
            288 hlineto
            1 47 rlineto
            hintmask 0101010110000000
            -117 14 rlineto
            184 125 vlineto
            152 76 104 102 103 -78 104 -159 hvcurveto
            hintmask 1001001110000000
            -279 -8 rlineto
            hintmask 0011010110000000
            226 callgsubr
            hintmask 1001100110000000
            366 callgsubr
          </CharString>
          <CharString index="129">
            -87 48 30 91 76 -7 rrcurveto
            31 -23 5 -31 -38 vvcurveto
            return
          </CharString>
          <CharString index="130">
            hhcurveto
            33 44 9 29 36 hvcurveto
            -127 -106 callsubr
            -276 hlineto
            return
          </CharString>
          <CharString index="131">
            37 rmoveto
            hintmask 11010000
            133 73 73 78 59 -43 63 -87 41 hvcurveto
            hintmask 11100000
            44 26 32 41 51 vvcurveto
            80 -79 82 -109 -72 -75 -36 -40 -42 vhcurveto
            49 -70 60 53 93 37 60 -6 rlinecurve
            32 -17 11 -32 -26 vvcurveto
            -53 -45 -38 -61 -19 vhcurveto
            -39 3 -46 -9 -41 -27 44 -81 rcurveline
            125 51 rlineto
            hintmask 11010000
            77 -20 36 -42 -45 vvcurveto
            -59 -61 -49 -93 -11 -10 1 1 -11 vhcurveto
            -57 84 -33 -8 -38 -92 16 -19 57 -31 41 -4 rlinecurve
            148 -174 41 32 -1 17 -125 124 rlineto
            hintmask 11100000
            2 3 0 2 hhcurveto
            endchar
          </CharString>
          <CharString index="132">
            27 callgsubr
            -9 return
          </CharString>
          <CharString index="133">
            -17 42 rlineto
            -16 -36 -39 -7 -29 hhcurveto
            -103 -57 83 112 66 20 56 42 49 hvcurveto
            59 -4 62 -30 51 -40 53 71 rcurveline
            43 -44 -47 23 -61 hhcurveto
            -131 -97 -104 -150 return
          </CharString>
          <CharString index="134">
            -48 2 76 251 252 callgsubr
            215 248 callsubr
            343 -126 350 callsubr
            22 23 4 8 23 hvcurveto
            48 -194 313 callsubr
            18 -90 -44 -30 -67 -9 -57 19 rlinecurve
            139 callgsubr
            -567 hlineto
            return
          </CharString>
          <CharString index="135">
            73 51 409 callsubr
            126 197 callsubr
            hintmask 11001101
            -23 callgsubr
            hintmask 11010101
            -77 callgsubr
            494 -126 hlineto
            hintmask 11010010
            -301 hlineto
            hintmask 10110010
            -50 callgsubr
            -50 -16 rlineto
            213 callsubr
            122 hhcurveto
            hintmask 11010101
            71 61 48 81 562 callsubr
            hvcurveto
            169 -331 -89 callsubr
            -688 hlineto
            return
          </CharString>
          <CharString index="136">
            -60 hvcurveto
            50 60 rlineto
            35 43 27 31 57 vvcurveto
            123 vlineto
            -41 36 rlineto
            363 -143 hlineto
            -96 52 rlineto
            -93 20 -83 -73 -82 vvcurveto
            return
          </CharString>
          <CharString index="137">
            7 61 19 hintmask 11100100
            -65 callgsubr
            hintmask 11010110
            -70 callgsubr
            hintmask 11100100
            163 callgsubr
            return
          </CharString>
          <CharString index="138">
            97 209 -210 -106 callsubr
            return
          </CharString>
          <CharString index="139">
            -58 callsubr
            4 -20 hstemhm
            return
          </CharString>
          <CharString index="140">
            8 callgsubr
            hintmask 10100110
            39 callsubr
            hintmask 01001110
            -11 callgsubr
            hintmask 10010110
            379 callgsubr
            hintmask 10001110
            496 callgsubr
          </CharString>
          <CharString index="141">
            551 166 callsubr
          </CharString>
          <CharString index="142">
            -35 26 -74 -77 rlineto
            42 -58 -64 45 -23 hhcurveto
            -37 -36 -44 -77 -50 hvcurveto
            36 -29 rlineto
            53 47 24 19 13 28 83 -82 39 hhcurveto
            return
          </CharString>
          <CharString index="143">
            -126 -90 hlineto
            -142 -63 -83 -84 -83 62 -76 69 -39 hvcurveto
            return
          </CharString>
          <CharString index="144">
            rmoveto
            -32 -27 23 34 33 25 25 33 32 25 -25 -34 -33 -23 -23 -33 hvcurveto
            2 -41 284 callsubr
            return
          </CharString>
          <CharString index="145">
            116 54 -17 39 rlineto
            -94 -51 -50 34 49 vvcurveto
            49 49 46 70 34 vhcurveto
            return
          </CharString>
          <CharString index="146">
            266 vlineto
            36 47 69 39 40 hhcurveto
            34 30 -27 -81 hvcurveto
            -241 vlineto
            -21 -7 -22 -8 -14 -7 5 -33 rcurveline
            205 hlineto
            return
          </CharString>
          <CharString index="147">
            -43 -219 47 -29 -21 255 44 225 callgsubr
            0 74 141 83 hintmask 1001100110000000
            98 callgsubr
            hintmask 1001010110000000
            -273 760 rmoveto
            hintmask 1011101010000000
            41 callsubr
            hintmask 1011100110000000
            286 callgsubr
            -74 77 -67 97 return
          </CharString>
          <CharString index="148">
            433 callgsubr
            36 callsubr
            return
          </CharString>
          <CharString index="149">
            -21 69 70 80 60 -57 76 58 83 -45 80 79 376 callgsubr
            256 386 callgsubr
            hintmask 0111001101111110
            348 124 99 callgsubr
            hintmask 0110101101010110
            385 19 rmoveto
            -53 callsubr
            -220 41 188 callsubr
            558 4 callgsubr
            rrcurveto
            return
          </CharString>
          <CharString index="150">
            -77 callgsubr
            360 -74 -156 hlineto
            -105 -46 -54 -54 -73 85 -94 101 -15 hvcurveto
            168 45 rlineto
            return
          </CharString>
          <CharString index="151">
            3 0 414 callsubr
            hintmask 11001000
            21 487 rmoveto
            54 hlineto
            hintmask 10101000
            53 callgsubr
            hintmask 11001000
            13 -100 rlineto
            54 hlineto
            hintmask 10011000
            170 callsubr
            hintmask 11001000
            -3 -33 2 -75 11 -61 rrcurveto
            endchar
          </CharString>
          <CharString index="152">
            -111 52 107 -94 110 -96 callgsubr
            return
          </CharString>
          <CharString index="153">
            22 23 callgsubr
            return
          </CharString>
          <CharString index="154">
            229 callgsubr
            hintmask 01100000
            47 34 rlineto
            hintmask 10100000
            216 callsubr
          </CharString>
          <CharString index="155">
            -56 callgsubr
            143 -174 -100 callsubr
            return
          </CharString>
          <CharString index="156">
            294 callgsubr
            -30 22 -9 16 17 vvcurveto
            36 44 26 63 vhcurveto
            return
          </CharString>
          <CharString index="157">
            -25 20 -12 25 22 vvcurveto
            35 30 30 65 vhcurveto
            return
          </CharString>
          <CharString index="158">
            -227 543 callsubr
            hintmask 10110000
            -23 callgsubr
            hintmask 11010000
            419 callgsubr
            -13 -36 rlineto
            252 callsubr
            60 72 29 66 35 hvcurveto
            -52 69 -48 -90 -122 -22 -62 27 rlinecurve
            -85 callsubr
            202 -94 callsubr
            -388 hlineto
            return
          </CharString>
          <CharString index="159">
            -125 -106 callsubr
            return
          </CharString>
          <CharString index="160">
            74.5 -70 87 hintmask 01111010
            202 -20 rmoveto
            101 71 59 86 hvcurveto
            161 -251 -23 107 vvcurveto
            18 7 23 25 16 vhcurveto
            hintmask 01111100
            39 callgsubr
            hintmask 10111010
            -155 248 27 -117 vvcurveto
            -24 -10 -19 -17 -15 vhcurveto
            -75 10 -73 34 -50 34 -37 -88 rcurveline
            hintmask 01111010
            -36 65 59 -16 53 hhcurveto
            return
          </CharString>
          <CharString index="161">
            58 callsubr
            hstemhm
            87 93 351 74 hintmask 11001100
            return
          </CharString>
          <CharString index="162">
            3 rmoveto
            76 -39 rlineto
            16 17 11 20 22 vvcurveto
            52 -62 40 -42 32 vhcurveto
            -107 82 rlineto
            hintmask 11100000
            88 71 rlineto
            66 54 32 51 53 vvcurveto
            81 -75 92 -91 -72 -45 -58 -56 -38 22 -40 84 -49 vhcurveto
            24 29 -99 52 69 121 83 -23 rlinecurve
            25 -22 8 -24 -24 vvcurveto
            -44 -28 -43 -47 -37 vhcurveto
            -129 -102 rlineto
            -48 vlineto
            hintmask 11010000
            149 -111 rlineto
            33 -25 26 -17 -31 vvcurveto
            -14 -6 -13 -9 -11 vhcurveto
            endchar
          </CharString>
          <CharString index="163">
            -143 -15 76 198.5 60.5 107 61 return
          </CharString>
          <CharString index="164">
            rmoveto
            50 57 -20 -32 53 hvcurveto
            -89 vlineto
            -17 -26 -22 -19 -24 -15 -120 199 rcurveline
            1 7 8 1 8 hhcurveto
            -98 -211 rmoveto
            -53 61 10 96 71 38 125 -205 rcurveline
            -57 -19 -61 6 -35 23 rrcurveto
            return
          </CharString>
          <CharString index="165">
            106 -18 56 callgsubr
            return
          </CharString>
          <CharString index="166">
            -51.5 -47 callgsubr
            return
          </CharString>
          <CharString index="167">
            rlineto
            170 -94 callsubr
            return
          </CharString>
          <CharString index="168">
            -4 9 -21 550 305 callgsubr
            hintmask 10111000
            -23 callgsubr
            hintmask 11011000
            490 callsubr
            -207 352 callgsubr
            332 -96 callsubr
            235 -319 hlineto
            -297 -231 64 -52 233 191 rlineto
            -122 -106 callsubr
            -611 hlineto
            return
          </CharString>
          <CharString index="169">
            26 -16 17 -43 -33 vvcurveto
            -64 -60 -71 -113 -19 vhcurveto
            -61 62 -33 -8 -32 -108 18 -18 62 -13 35 2 rlinecurve
            207 -160 37 38 -1 17 -159 121 rlineto
            109 32 65 79 82 vvcurveto
            return
          </CharString>
          <CharString index="170">
            461 callgsubr
            -44 -39 vvcurveto
            -37 -7 -35 -14 -32 vhcurveto
            -91 50 -40 46 52 vvcurveto
            return
          </CharString>
          <CharString index="171">
            -40 callgsubr
            -109 118 -86 323 callsubr
            return
          </CharString>
          <CharString index="172">
            23 30 40 11 39 hhcurveto
            43 40 -14 -24 26 hvcurveto
            13 -36 -33 -53 -51 -31 55 -67 rcurveline
            54 28 30 44 56 vvcurveto
            103 -100 69 -113 return
          </CharString>
          <CharString index="173">
            vstem
            71 callgsubr
            return
          </CharString>
          <CharString index="174">
            hlineto
            -16 -21 -8 -26 -29 vvcurveto
            -88 79 -88 131 -20 vhcurveto
            369 callsubr
            return
          </CharString>
          <CharString index="175">
            311 -318 55 52 -1 17 return
          </CharString>
          <CharString index="176">
            hintmask 10111000
            122 callgsubr
            hintmask 11011000
            187 callgsubr
            hintmask 10111000
            -35 -1 -34 -6 -30 -15 5 -297 rcurveline
            -115 2 32 -63 54 hhcurveto
            return
          </CharString>
          <CharString index="177">
            -95 callgsubr
            hintmask 0110110110000000
            134 callsubr
            return
          </CharString>
          <CharString index="178">
            rmoveto
            213 vlineto
            -44 38 rlineto
            244 -265 hlineto
            -32 -28 -38 -16 -35 hhcurveto
            -41 -37 20 42 -21 hvcurveto
            return
          </CharString>
          <CharString index="179">
            hlineto
            -28 -39 19 -55 61 -59 52 -30 rlinecurve
            return
          </CharString>
          <CharString index="180">
            8 43 6 83 -2 53 -53 4 rcurveline
            return
          </CharString>
          <CharString index="181">
            hlineto
            -2 2 2 -1 rlineto
            return
          </CharString>
          <CharString index="182">
            -101 198 callsubr
            hintmask 11010110
            -31 callgsubr
            hintmask 10110110
            47 49 rlineto
            hintmask 11010110
            334 callgsubr
            hintmask 11011110
            143 callgsubr
            hintmask 10111110
            444 callsubr
            return
          </CharString>
          <CharString index="183">
            112 179 rmoveto
            137 65 82 109 27 37 -4 -17 28 vhcurveto
            15 -25 6 -39 -37 vvcurveto
            -120 -72 -86 -100 -41 -44 12 18 -28 vhcurveto
            -1 20 -1 26 33 vvcurveto
            -67 -392 rmoveto
            return
          </CharString>
          <CharString index="184">
            24 -12 38 2 38 11 16 11 rlinecurve
            -45 257 rlineto
            -48 38 48 -28 52 hhcurveto
            117 94 121 150 142 -82 95 -123 -120 -84 -103 -147 -98 -1 -61 -3 -83 hvcurveto
            return
          </CharString>
          <CharString index="185">
            vvcurveto
            57 38 35 54 23 21 -7 -15 23 vhcurveto
            17 34 rlineto
            35 -27 -32 25 -48 hhcurveto
            -66 -53 -49 -68 -7 1 -7 1 -8 hvcurveto
            return
          </CharString>
          <CharString index="186">
            hlineto
            -31 -43 -5 -20 -39 hvcurveto
            endchar
          </CharString>
          <CharString index="187">
            271 callgsubr
            342 -15 rmoveto
            196 -7 callgsubr
            -175 102 -159 220 2 hvcurveto
            return
          </CharString>
          <CharString index="188">
            -117 -64 -63 -76 -111 136 -73 99 64 64 31 60 42 hvcurveto
            -55 59 -53 -73 -110 -30 -81 35 rlinecurve
            -30 23 -7 30 20 vvcurveto
            52 44 38 79 vhcurveto
            128 129 hlineto
            return
          </CharString>
          <CharString index="189">
            124 callgsubr
            254 hlineto
            9 20 -30 50 rlineto
            return
          </CharString>
          <CharString index="190">
            10 20 -49 58 -59 9 -46 -9 -33 -19 rlinecurve
            -39 21 -20 31 31 vvcurveto
            26 14 27 28 22 vhcurveto
            return
          </CharString>
          <CharString index="191">
            67 42 42 56 23 25 -7 -14 23 vhcurveto
            17 34 rlineto
            39 -29 -40 19 -40 hhcurveto
            return
          </CharString>
          <CharString index="192">
            198 -164 163 callsubr
            return
          </CharString>
          <CharString index="193">
            -2 -45 6 -83 8 -51 rrcurveto
            return
          </CharString>
          <CharString index="194">
            -67 callgsubr
            endchar
          </CharString>
          <CharString index="195">
            rmoveto
            -7 -41 33 hlineto
            55 26 -29 -29 -14 -6 -14 -12 -10 hvcurveto
            -39 -3 -53 19 -40 22 -19 -60 rcurveline
            -17 37 41 -9 34 hhcurveto
            63 53 31 59 47 -33 35 -44 4 hvcurveto
            1 vlineto
            return
          </CharString>
          <CharString index="196">
            -58 47 -44 -98 -119 hhcurveto
            -84 -97 49 116 -70 hvcurveto
            -37 -29 return
          </CharString>
          <CharString index="197">
            -70 42 -51 -87 -115 hhcurveto
            -90 -88 53 122 -74 hvcurveto
            -37 -27 return
          </CharString>
          <CharString index="198">
            236 vlineto
            70 -4 28 -10 19 vhcurveto
            -15 28 -38 32 -38 7 rrcurveto
            return
          </CharString>
          <CharString index="199">
            711 284 callsubr
            -2 41 rmoveto
            -32 -27 23 34 33 25 25 33 32 25 -25 -34 -33 -23 -23 -33 hvcurveto
            endchar
          </CharString>
          <CharString index="200">
            -107 74 -76 71 87 vvcurveto
            60 36 40 54 return
          </CharString>
          <CharString index="201">
            rmoveto
            11 -30 rlineto
            132 -37 hlineto
            -19 -5 -18 -7 -16 -8 3 -16 rcurveline
            152 hlineto
            2 25 -41 6 rlineto
            42 42 vlineto
            return
          </CharString>
          <CharString index="202">
            -231 rmoveto
            50 callgsubr
            return
          </CharString>
          <CharString index="203">
            19 callsubr
            hstemhm
            -20 716 hintmask 01110000
            -102 callsubr
            hintmask 10110000
            1 47 -73 8 -254 619 rlineto
            return
          </CharString>
          <CharString index="204">
            -23 53 41 vvcurveto
            54 39 32 48 22 23 -7 -14 23 vhcurveto
            15 45 rlineto
            21 -26 -41 21 -48 hhcurveto
            -80 -46 -58 -65 return
          </CharString>
          <CharString index="205">
            -42 callsubr
            -46 return
          </CharString>
          <CharString index="206">
            -15 callsubr
            hstemhm
            32 58 460 78 return
          </CharString>
          <CharString index="207">
            -96 callsubr
            384 -94 callsubr
            return
          </CharString>
          <CharString index="208">
            151 152 107 230 return
          </CharString>
          <CharString index="209">
            133 callsubr
            vhcurveto
            return
          </CharString>
          <CharString index="210">
            -74 21 54 -43 72 hhcurveto
            return
          </CharString>
          <CharString index="211">
            -202 538 228 callgsubr
            hintmask 01100000
            -30 588 rmoveto
            hintmask 10100000
            322 callgsubr
            -226 185 rlineto
            49 49 50 57 56 vvcurveto
            134 callgsubr
            184 -94 callsubr
            -413 hlineto
            return
          </CharString>
          <CharString index="212">
            33 rmoveto
            5 -33 rlineto
            226 211 callgsubr
            return
          </CharString>
          <CharString index="213">
            -239 101 callgsubr
            return
          </CharString>
          <CharString index="214">
            hlineto
            -1 -6 -1 -7 -7 vvcurveto
            -58 40 -49 76 -54 vhcurveto
            return
          </CharString>
          <CharString index="215">
            332 callsubr
            hstemhm
            return
          </CharString>
          <CharString index="216">
            -40 callsubr
            rlineto
            return
          </CharString>
          <CharString index="217">
            rlineto
            -96 -33 -33 -48 -44 vvcurveto
            -69 78 -64 80 46 46 21 38 43 vhcurveto
            -39 66 rlineto
            -32 -36 -54 -26 -47 hhcurveto
            -37 -22 17 23 43 77 30 78 25 hvcurveto
            46 vlineto
            -97 267 29 24 30 33 552 callsubr
            19 -95 -44 -29 -67 -5 -58 19 rlinecurve
            147 callsubr
            356 callgsubr
            return
          </CharString>
          <CharString index="218">
            95 callsubr
            42 65 rlineto
            -49 hlineto
            -63 -72 241 callsubr
          </CharString>
          <CharString index="219">
            207 117 118 callsubr
          </CharString>
          <CharString index="220">
            0 callgsubr
            -46 45 101 -23 65 hhcurveto
            return
          </CharString>
          <CharString index="221">
            65.5 -50 50 return
          </CharString>
          <CharString index="222">
            439 523 callsubr
            97 hlineto
            -16 -32 -6 -31 -28 vvcurveto
            -101 82 -75 89 51 45 25 34 98 vhcurveto
            21 -35 -13 -63 -65 -56 73 -43 rcurveline
            106 123 -79 152 -106 hhcurveto
            -52 -88 -38 -26 -72 hvcurveto
            -52 62 22 108 47 41 rrcurveto
            266 -94 callsubr
            -465 hlineto
            endchar
          </CharString>
          <CharString index="223">
            hmoveto
            -1 17 -225 192 rlineto
            125 37 67 92 89 vvcurveto
            104 -91 100 -119 -74 -69 -39 -37 -40 vhcurveto
            49 -72 60 51 77 36 68 -4 rlinecurve
            50 -32 12 -43 -36 vvcurveto
            -76 -54 -72 -114 -28 vhcurveto
            -55 64 -33 -8 -32 -108 15 -17 52 -17 38 1 rlinecurve
            252 -227 rlineto
            endchar
          </CharString>
          <CharString index="224">
            -86 callsubr
            -423 return
          </CharString>
          <CharString index="225">
            184 callgsubr
            endchar
          </CharString>
          <CharString index="226">
            27 8 48 8 38 1 rlinecurve
            36 -18 return
          </CharString>
          <CharString index="227">
            159 -96 callsubr
            return
          </CharString>
          <CharString index="228">
            -179 -15 74 366 63 hstem
            20 93 vstem
            258 -15 rmoveto
            136 55 26 callsubr
            -137 81 -114 157 2 hvcurveto
            return
          </CharString>
          <CharString index="229">
            73 -72.5 -47 callgsubr
            8 -20 hstemhm
            return
          </CharString>
          <CharString index="230">
            3 callsubr
            317 -237 -89 callsubr
            return
          </CharString>
          <CharString index="231">
            -39 callgsubr
            -46 -37 -20 -88 -13 vhcurveto
            44 -38 -44 6 -91 hhcurveto
            return
          </CharString>
          <CharString index="232">
            rmoveto
            46 -38 116 109 126 -106 43 41 -125 138 rlineto
            -81 hlineto
            return
          </CharString>
          <CharString index="233">
            147 callsubr
            86 callgsubr
            return
          </CharString>
          <CharString index="234">
            rlineto
            4 callsubr
            return
          </CharString>
          <CharString index="235">
            298 callgsubr
            150 vmoveto
            7 callsubr
            endchar
          </CharString>
          <CharString index="236">
            rmoveto
            -48 -40 18 42 -18 hvcurveto
            203 -96 callsubr
            279 -154 hlineto
            -114 -64 -33 -66 vhcurveto
            return
          </CharString>
          <CharString index="237">
            -25 callsubr
            213 callgsubr
            return
          </CharString>
          <CharString index="238">
            534 callsubr
            101 2 -77 74 -104 hhcurveto
            return
          </CharString>
          <CharString index="239">
            hlineto
            2 -35 20 -46 82 -51 26 35 rcurveline
            return
          </CharString>
          <CharString index="240">
            -109 118 -86 89 return
          </CharString>
          <CharString index="241">
            15 -28 113 7 rlineto
            return
          </CharString>
          <CharString index="242">
            -77 callgsubr
            463 144 callsubr
            -14 2 -13 3 -13 vhcurveto
            -55 -88 -124 -36 -72 27 rrcurveto
            return
          </CharString>
          <CharString index="243">
            736 rmoveto
            34 33 rlineto
            95 -56 -80 47 -70 hhcurveto
            -71 -58 -47 -93 -19 hvcurveto
            72 -32 rlineto
            74 17 43 29 45 hhcurveto
            47 53 -32 -74 43 hvcurveto
            -140 -68 rmoveto
            24 9 28 26 13 17 -9 24 -22 28 -21 14 -21 -8 -32 -24 -14 -20 13 -26 21 -28 20 -12 rrcurveto
            endchar
          </CharString>
          <CharString index="244">
            259 callsubr
            486 hlineto
            hintmask 01101000
            9 48 4 89 -1 62 -56 4 rcurveline
            hintmask 10011000
            484 callsubr
            return
          </CharString>
          <CharString index="245">
            -6 -35 35 -16 41 -13 34 -10 rlinecurve
            -151 vlineto
            -12 -39 -46 -10 -44 hhcurveto
            -149 -76 130 135 114 37 114 91 50 hvcurveto
            return
          </CharString>
          <CharString index="246">
            rmoveto
            90 69 68 103 32 hvcurveto
            13 2 12 3 13 5 48 -194 rcurveline
            313 callsubr
            return
          </CharString>
          <CharString index="247">
            -239 hlineto
            -81 82 rlineto
            39 -40 -45 31 -54 hhcurveto
            -45 -53 -22 -47 -48 hvcurveto
            return
          </CharString>
          <CharString index="248">
            -17 46 rlineto
            -11 -30 -37 -12 -25 hhcurveto
            -26 -7 14 40 hvcurveto
            269 97 vlineto
            return
          </CharString>
          <CharString index="249">
            -115 -46 -60 -56 -77 86 -92 100 -14 511 callsubr
            return
          </CharString>
          <CharString index="250">
            749 44 callgsubr
            return
          </CharString>
          <CharString index="251">
            -157 hlineto
            -135 65 rlineto
            -107 27 -117 -66 -112 vvcurveto
            return
          </CharString>
          <CharString index="252">
            -103 -20 65 381 62 hstem
            491 callgsubr
            vstem
            return
          </CharString>
          <CharString index="253">
            -203 98 108 -43 79 hhcurveto
            return
          </CharString>
          <CharString index="254">
            -51 31 -21 50 39 vvcurveto
            return
          </CharString>
          <CharString index="255">
            -1 callsubr
            endchar
          </CharString>
          <CharString index="256" raw="1">
            15c8c0bb e9b61f8d 06388fae 50ba1bac
            b6b2b89b 1f7ea6fb 017fc8f8 0f7d9b6e
            976c8e19 737e7f30 05c66e53 b14f1b20
            37fb04fb 23fb1fd5 fb00eb1f 2f0b
          </CharString>
          <CharString index="257">
            -204 -21 33 -21 return
          </CharString>
          <CharString index="258">
            -46 0 72 -72 201 397.5 424 callgsubr
            return
          </CharString>
          <CharString index="259">
            -38.5 48 return
          </CharString>
          <CharString index="260">
            rmoveto
            -28 -29 5 11 -25 hvcurveto
            -31 28 -12 34 27 vvcurveto
            51 41 45 92 vhcurveto
            93 hlineto
            27 -26 16 -32 -35 vvcurveto
            -74 -71 -34 -73 vhcurveto
            return
          </CharString>
          <CharString index="261">
            rmoveto
            -26 -37 4 17 -36 hvcurveto
            -36 33 -15 39 32 vvcurveto
            58 49 56 106 vhcurveto
            103 hlineto
            34 -30 23 -40 -41 vvcurveto
            -71 -69 -57 -96 vhcurveto
            return
          </CharString>
          <CharString index="262">
            66 186 72 88 -92 callsubr
            206 81 50 68 204 83 return
          </CharString>
          <CharString index="263">
            27 -39 114 9 -11 -94 -134 -41 rlinecurve
            return
          </CharString>
          <CharString index="264">
            78 59 47 36 66 hhcurveto
            56 hlineto
            -10 -19 -5 -22 -21 vvcurveto
            -55 36 -45 43 -33 vhcurveto
            -28 36 52 -26 55 hhcurveto
            41 39 14 30 35 hvcurveto
            -137 -106 callsubr
            -1169 hlineto
            return
          </CharString>
          <CharString index="265">
            462 callgsubr
            -116 -67 hlineto
            -151 -64 -76 -83 return
          </CharString>
          <CharString index="266">
            -274 475 callsubr
            hintmask 01100000
            -30 588 rmoveto
            hintmask 10100000
            142 callgsubr
            477 callgsubr
            159 -94 callsubr
            -341 hlineto
            return
          </CharString>
          <CharString index="267">
            35 -1 23 64 rlineto
            1 5 4 0 5 hhcurveto
            34 26 -18 -31 -23 -16 -38 -63 -2 hvcurveto
            return
          </CharString>
          <CharString index="268">
            1 47 -68 6 -136 221 rlineto
            95 33 47 83 75 vvcurveto
            97 -78 96 -159 vhcurveto
            return
          </CharString>
          <CharString index="269">
            334 callsubr
            488 callsubr
            return
          </CharString>
          <CharString index="270">
            52 50 -1 17 -191 120 rlineto
            return
          </CharString>
          <CharString index="271">
            6 48 -17 8 -28 5 -27 3 rlinecurve
            return
          </CharString>
          <CharString index="272">
            96 -92 callsubr
            return
          </CharString>
          <CharString index="273">
            -84 callgsubr
            -203 -60 callgsubr
          </CharString>
          <CharString index="274">
            107 rmoveto
            76 79 59 102 118 -106 110 -106 -79 -83 -62 -103 -125 121 -99 98 hvcurveto
            -108 83 rmoveto
            -26 31 -12 35 35 vvcurveto
            91 81 81 112 -53 vhcurveto
            26 -31 12 -36 -35 vvcurveto
            -87 -75 -78 -118 47 vhcurveto
            endchar
          </CharString>
          <CharString index="275">
            63 -50 247 188 219 callgsubr
            return
          </CharString>
          <CharString index="276">
            -82 callsubr
            hintmask 11001100
            -43 callsubr
            return
          </CharString>
          <CharString index="277">
            11 61 2 75 -3 33 -183 -6 -207 0 -185 6 rrcurveto
            return
          </CharString>
          <CharString index="278">
            384 callgsubr
            -93 322 return
          </CharString>
          <CharString index="279">
            -22 -6 -23 -8 -17 -9 3 -16 rcurveline
            179 hlineto
            2 25 -59 10 rlineto
            270 vlineto
            return
          </CharString>
          <CharString index="280">
            rmoveto
            81 58 65 86 79 -63 73 -80 -78 -62 -73 -79 -85 67 -66 77 hvcurveto
            11 59 rmoveto
            -57 -29 50 50 29 9 28 19 19 hvcurveto
            4 12 11 2 10 hhcurveto
            53 30 -51 -50 -30 -10 -29 -23 -19 hvcurveto
            -2 -9 -8 -1 -8 hhcurveto
            return
          </CharString>
          <CharString index="281">
            115 -95 rmoveto
            33 45 41 53 36 vhcurveto
            100 -13 90 -22 41 -25 rrcurveto
            -70 -38 -99 -35 -81 hhcurveto
            -64 -47 21 34 hvcurveto
            return
          </CharString>
          <CharString index="282">
            rmoveto
            51 -44 58 53 58 50 59 49 rlinecurve
            -82 50 rlineto
            return
          </CharString>
          <CharString index="283">
            -106 102 callgsubr
            return
          </CharString>
          <CharString index="284">
            -44 46 14 98 55 35 rrcurveto
            138 hlineto
            return
          </CharString>
          <CharString index="285">
            rmoveto
            156 66 97 callgsubr
            -125 81 -116 164 hvcurveto
            return
          </CharString>
          <CharString index="286">
            194 callgsubr
            -331 hlineto
            return
          </CharString>
          <CharString index="287">
            433 callgsubr
            -116 350 callsubr
            23 24 4 8 23 hvcurveto
            return
          </CharString>
          <CharString index="288">
            -84 -146 hlineto
            142 callsubr
            return
          </CharString>
          <CharString index="289">
            rmoveto
            20 25 5 15 27 hvcurveto
            225 callsubr
            return
          </CharString>
          <CharString index="290">
            -203 -51 rlineto
            224 callsubr
            return
          </CharString>
          <CharString index="291">
            119 callgsubr
            -43 return
          </CharString>
          <CharString index="292">
            255 callgsubr
            -16 -20 hstemhm
            return
          </CharString>
          <CharString index="293">
            -96 callsubr
            244 return
          </CharString>
          <CharString index="294">
            138 74 callsubr
            160 399 callsubr
            -562 hlineto
            endchar
          </CharString>
          <CharString index="295">
            hlineto
            -78 callgsubr
            return
          </CharString>
          <CharString index="296">
            9 -24 -28 6 -31 hhcurveto
            -132 -120 -102 -155 -137 94 -113 135 2 hvcurveto
            109 73 rlineto
            return
          </CharString>
          <CharString index="297">
            144 -74 callgsubr
            return
          </CharString>
          <CharString index="298">
            49 callgsubr
            50 callsubr
            return
          </CharString>
          <CharString index="299">
            -73 41 -69 -61 -89 hhcurveto
            -91 -71 63 90 -58 hvcurveto
            -32 -27 rlineto
            -149 96 96 -48 90 hhcurveto
            100 65 60 71 61 -46 72 -87 18 hvcurveto
            -160 -48 rlineto
            -20 15 -9 18 18 vvcurveto
            28 21 27 36 11 vhcurveto
            return
          </CharString>
          <CharString index="300">
            516 callgsubr
            -44 -28 -75 -73 -52 rrcurveto
            -39 30 -21 39 39 vvcurveto
            -140 -240 rmoveto
            56 -60 176 119 48 -24 54 -17 56 -6 rlinecurve
            -232 -169 59 -59 return
          </CharString>
          <CharString index="301">
            rrcurveto
            73 -18 -71 60 -77 hhcurveto
            -41 -44 -17 -35 -37 hvcurveto
            52 -65 96 68 rlineto
            return
          </CharString>
          <CharString index="302">
            4 callsubr
            172 callgsubr
            hvcurveto
            return
          </CharString>
          <CharString index="303">
            411 callgsubr
            278 callsubr
            return
          </CharString>
          <CharString index="304">
            253 callgsubr
            -76 245 -83 83 return
          </CharString>
          <CharString index="305">
            vlineto
            -22 -5 -23 -6 -23 -11 rrcurveto
            return
          </CharString>
          <CharString index="306">
            150 64 60 109 82 vvcurveto
            return
          </CharString>
          <CharString index="307">
            24 -55 434 callgsubr
            return
          </CharString>
          <CharString index="308">
            181 -127 rmoveto
            -153 137 rlineto
            -48 hlineto
            -136 -127 59 -47 109 106 123 -107 rlineto
            return
          </CharString>
          <CharString index="309">
            55 -50 261 174 55 -222 90 35 -102 210 29 24 29 32 552 callsubr
            return
          </CharString>
          <CharString index="310">
            -118 111 -118 101 return
          </CharString>
          <CharString index="311">
            214 callsubr
            endchar
          </CharString>
          <CharString index="312">
            -106 callsubr
            -586 hlineto
            endchar
          </CharString>
          <CharString index="313">
            227 vlineto
            46 49 37 30 48 hhcurveto
            32 25 -13 -31 23 hvcurveto
            -29 -102 114 callgsubr
            199 callsubr
            return
          </CharString>
          <CharString index="314">
            43 callgsubr
            hstemhm
            return
          </CharString>
          <CharString index="315">
            95 -74 78 -85 -49 -51 -26 -36 -38 vhcurveto
            151 -96 callsubr
            392 -94 callsubr
            return
          </CharString>
          <CharString index="316">
            175 callgsubr
            -22 27 vhcurveto
            -14 return
          </CharString>
          <CharString index="317">
            -77 callgsubr
            66 hlineto
            -9 -16 -5 -17 -17 vvcurveto
            -49 36 -51 66 -37 vhcurveto
            return
          </CharString>
          <CharString index="318">
            -77 callgsubr
            189 314 callgsubr
            return
          </CharString>
          <CharString index="319">
            -106 -20 90 328 574 callsubr
            return
          </CharString>
          <CharString index="320">
            -197 55 86 -142 return
          </CharString>
          <CharString index="321">
            -64 callsubr
            hintmask 10110000
            -59 callsubr
            hintmask 11010000
            -43 callsubr
            return
          </CharString>
          <CharString index="322">
            -77 callgsubr
            432 -125 hlineto
            -43 -9 -43 -25 -28 -46 -66 70 237 callsubr
            -99 68 -86 77 85 vvcurveto
            return
          </CharString>
          <CharString index="323">
            -5 35 rlineto
            -233 79 callsubr
          </CharString>
          <CharString index="324">
            -106 callsubr
            -608 hlineto
            return
          </CharString>
          <CharString index="325">
            -42 76 -99 -62 rlineto
            -20 16 -8 19 19 vvcurveto
            39 33 37 54 72 47 -66 -155 116 vhcurveto
            return
          </CharString>
          <CharString index="326">
            -113 48 265 callgsubr
            return
          </CharString>
          <CharString index="327">
            -36 -30 75 159 60 77 83 114 376 callgsubr
            return
          </CharString>
          <CharString index="328">
            28 45 44.5 -44.5 46 return
          </CharString>
          <CharString index="329">
            rlineto
            39 46 212 callgsubr
            return
          </CharString>
          <CharString index="330">
            66 -20 -15 callsubr
            return
          </CharString>
          <CharString index="331">
            -25 22 -16 19 25 vvcurveto
            42 46 23 60 vhcurveto
            return
          </CharString>
          <CharString index="332">
            -161 vlineto
            -99 callsubr
            return
          </CharString>
          <CharString index="333">
            -126 -90 hlineto
            -141 -64 -82 return
          </CharString>
          <CharString index="334">
            -77 callgsubr
            58 -156 hlineto
            return
          </CharString>
          <CharString index="335">
            -25 -8 -29 -10 -17 -8 rrcurveto
            return
          </CharString>
          <CharString index="336">
            -35 -53 -20 -106 -3 return
          </CharString>
          <CharString index="337">
            56 -39 28 -28 -40 vvcurveto
            -15 -258 -100 callsubr
            return
          </CharString>
          <CharString index="338">
            11 -18 -28 8 -28 hhcurveto
            -87 -72 -79 -112 -125 88 -111 return
          </CharString>
          <CharString index="339">
            70 -35 58 -43 20 hstemhm
            return
          </CharString>
          <CharString index="340">
            643 -77 callsubr
            hintmask 1110010111000000
            -81 callsubr
            hintmask 1110011011000000
            -89 callgsubr
          </CharString>
          <CharString index="341">
            276 callsubr
            hintmask 1111101010000000
            138 74 callsubr
            160 -96 callsubr
            190 -94 callsubr
            -560 hlineto
            endchar
          </CharString>
          <CharString index="342">
            -82 callsubr
            hintmask 1111100001100000
            -60 callsubr
            return
          </CharString>
          <CharString index="343">
            68 25 67 46 41 vhcurveto
            65 14 63 -21 42 -33 rrcurveto
            -278 vlineto
            -24 -40 -35 -11 -30 hhcurveto
            return
          </CharString>
          <CharString index="344">
            rcurveline
            161 callgsubr
            return
          </CharString>
          <CharString index="345">
            -78 51 -51 64 -25 vhcurveto
            -38 -27 -41 -39 -27 -33 18 -47 rcurveline
            26 -1 27 -1 26 -2 rrcurveto
            return
          </CharString>
          <CharString index="346">
            412 -20 21 -20 return
          </CharString>
          <CharString index="347">
            -77 callgsubr
            90 return
          </CharString>
          <CharString index="348">
            156 callsubr
            endchar
          </CharString>
          <CharString index="349">
            79 callgsubr
            hintmask 11101110
            31 109 -14 11 rlineto
            -27 -28 -4 -7 -14 hvcurveto
            5 -94 rlineto
            hintmask 01101110
            524 callgsubr
          </CharString>
          <CharString index="350">
            -82 callsubr
            hintmask 11100110
            -60 callsubr
            return
          </CharString>
          <CharString index="351">
            152 -46 rlineto
            62 -19 14 -30 -24 vvcurveto
            -61 -92 -30 -78 18 vhcurveto
            -60 69 -33 -8 rlineto
            return
          </CharString>
          <CharString index="352">
            rmoveto
            216 vlineto
            204 -241 rlineto
            -24 -27 -35 -8 -31 hhcurveto
            -51 -41 22 35 -19 hvcurveto
            return
          </CharString>
          <CharString index="353">
            29 33 338 callgsubr
            254 hlineto
            6 48 -20 9 -48 7 -35 2 rlinecurve
            226 vlineto
            return
          </CharString>
          <CharString index="354">
            rmoveto
            -28 -5 -23 -7 -18 vhcurveto
            -200 233 rlineto
            212 hlineto
            return
          </CharString>
          <CharString index="355">
            83 156 callgsubr
            return
          </CharString>
          <CharString index="356">
            -4 0 63 -63 64 340 80 -75 75 0 -20 return
          </CharString>
          <CharString index="357">
            -30 588 523 callsubr
            return
          </CharString>
          <CharString index="358">
            66.5 -58 58 -8 -20 return
          </CharString>
          <CharString index="359">
            -120 51 112 -97 110 hhcurveto
            return
          </CharString>
          <CharString index="360">
            vvcurveto
            -53 43 -53 75 4 vhcurveto
            return
          </CharString>
          <CharString index="361">
            hintmask 11101100
            -77 callgsubr
            return
          </CharString>
          <CharString index="362">
            vvcurveto
            36 32 27 79 vhcurveto
            return
          </CharString>
          <CharString index="363">
            59 -48 rcurveline
            -61 callgsubr
            return
          </CharString>
          <CharString index="364">
            -34 -32 -19 -43 -49 vvcurveto
            -143 162 -126 222 -20 vhcurveto
            20 52 rlineto
            -191 17 -133 83 117 vvcurveto
            92 83 41 83 50 50 -15 -30 31 vhcurveto
            return
          </CharString>
          <CharString index="365">
            rrcurveto
            263 callgsubr
            return
          </CharString>
          <CharString index="366">
            vlineto
            -67 callsubr
            return
          </CharString>
          <CharString index="367">
            314 callsubr
            161 -20 hstemhm
            32 66 return
          </CharString>
          <CharString index="368">
            -133 vlineto
            -99 callsubr
            return
          </CharString>
          <CharString index="369">
            -29 560 callsubr
            -71 79 88 80 -56 81 -64 64 -50 25 381 callgsubr
            40 75 12 83 168 80 152 72 234 386 callgsubr
            return
          </CharString>
          <CharString index="370">
            rmoveto
            134 callgsubr
            294 -227 -267 hlineto
            10 19 6 20 19 vvcurveto
            return
          </CharString>
          <CharString index="371">
            -14 callgsubr
            4 -20 hstemhm
            return
          </CharString>
          <CharString index="372">
            368 callgsubr
            -92 114 -105 144 167 130 141 161 return
          </CharString>
          <CharString index="373">
            228 callgsubr
            251 83 hintmask 10101100
            272 391 callgsubr
            return
          </CharString>
          <CharString index="374">
            29 callsubr
            -92 103 -94 96 vhcurveto
            return
          </CharString>
          <CharString index="375">
            -38 57 54 -12 46 297 callsubr
            return
          </CharString>
          <CharString index="376">
            450 callgsubr
            rlineto
            endchar
          </CharString>
          <CharString index="377">
            -167 0 66 235 180 -72 75 -73 70 3 -20 return
          </CharString>
          <CharString index="378">
            -110 -236 -77 callsubr
            return
          </CharString>
          <CharString index="379">
            329 callsubr
            126 82 return
          </CharString>
          <CharString index="380">
            -77 callgsubr
            82 -278 hlineto
            -46 -93 -122 -21 -63 27 98 callsubr
            return
          </CharString>
          <CharString index="381">
            374 -20 rmoveto
            195 91 rlineto
            172 vlineto
            76 9 -1 49 rlineto
            -272 hlineto
            return
          </CharString>
          <CharString index="382">
            48 -195 90 35 -90 185 26 22 23 27 7 22 rlinecurve
            -88 96 -66 -32 return
          </CharString>
          <CharString index="383">
            -34 28 -17 36 35 vvcurveto
            58 46 48 103 vhcurveto
            return
          </CharString>
          <CharString index="384">
            232 callsubr
            20 386 callsubr
            return
          </CharString>
          <CharString index="385">
            vvcurveto
            293 callsubr
            return
          </CharString>
          <CharString index="386">
            -77 callgsubr
            116 return
          </CharString>
          <CharString index="387">
            -119 -110 rlineto
            -93 -11 93 -49 104 hhcurveto
            149 164 100 159 -35 hvcurveto
            -88 34 -163 32 -97 2 16 18 26 23 26 20 rrcurveto
            return
          </CharString>
          <CharString index="388">
            132 4 68 71 61 hhcurveto
            48 34 -43 -54 -59 -41 -96 -127 -90 hvcurveto
            60 -54 rlineto
            128 88 49 102 79 vvcurveto
            77 -47 74 -70 26 vhcurveto
            return
          </CharString>
          <CharString index="389">
            203 callsubr
            vhcurveto
            endchar
          </CharString>
          <CharString index="390">
            -40 -24 -27 -43 -42 277 callgsubr
            -60 445 callgsubr
            303 vlineto
            96 54 65 104 111 vvcurveto
            return
          </CharString>
          <CharString index="391">
            rmoveto
            61 44 44 62 64 -48 47 -61 -62 -46 -48 -61 -65 51 -43 61 hvcurveto
            return
          </CharString>
          <CharString index="392">
            81 -20 74 193.5 53.5 -35 35 299 70 return
          </CharString>
          <CharString index="393">
            41 409 callsubr
            165 callgsubr
            return
          </CharString>
          <CharString index="394">
            58 43 51 91 vhcurveto
            154 74 callsubr
            return
          </CharString>
          <CharString index="395">
            213 callsubr
            119 hhcurveto
            return
          </CharString>
          <CharString index="396">
            -68 -78 -47 -100 -65 69 -106 135 return
          </CharString>
          <CharString index="397">
            68 callsubr
            rlineto
            return
          </CharString>
          <CharString index="398">
            172 callgsubr
            vhcurveto
            return
          </CharString>
          <CharString index="399">
            23 -5 25 -10 23 vhcurveto
            return
          </CharString>
          <CharString index="400">
            -54 42 385 callgsubr
            return
          </CharString>
          <CharString index="401">
            36 callgsubr
            154 hlineto
            9 20 -30 50 rlineto
            -287 hlineto
            return
          </CharString>
          <CharString index="402">
            rmoveto
            -1 callsubr
            return
          </CharString>
          <CharString index="403">
            -94 callsubr
            -572 hlineto
            endchar
          </CharString>
          <CharString index="404">
            hhcurveto
            244 246 -31 callsubr
            return
          </CharString>
          <CharString index="405">
            105 54 rlineto
            64 -17 31 -56 -50 vvcurveto
            -67 -55 -42 -67 -93 -77 82 124 -58 vhcurveto
            -46 -28 rlineto
            -212 101 108 -48 84 hhcurveto
            return
          </CharString>
          <CharString index="406">
            413 callgsubr
            106 callsubr
            return
          </CharString>
          <CharString index="407">
            77 -75.5 196.5 -150 29 hstemhm
            89 89 return
          </CharString>
          <CharString index="408">
            -77 callgsubr
            332 -40 callgsubr
            return
          </CharString>
          <CharString index="409">
            70 83 76 96 526 callgsubr
            return
          </CharString>
          <CharString index="410">
            36 -44 callsubr
            12 -47 return
          </CharString>
          <CharString index="411">
            793 69 callgsubr
            return
          </CharString>
          <CharString index="412">
            156 379 callsubr
            return
          </CharString>
          <CharString index="413">
            -229 529 236 hstem
            return
          </CharString>
          <CharString index="414">
            769 rmoveto
            63 -160 -124 116 -110 102 -87 -7 -71 -59 rlinecurve
            47 -77 84 54 53 -12 65 -50 rlinecurve
            89 -68 rlineto
            return
          </CharString>
          <CharString index="415">
            376 -92 callsubr
            200 177 callgsubr
            return
          </CharString>
          <CharString index="416">
            -5 callgsubr
            -211 return
          </CharString>
          <CharString index="417">
            -43 -46 -23 -38 -41 hvcurveto
            192 -96 callsubr
            return
          </CharString>
          <CharString index="418">
            3 0 52 546.5 196 callgsubr
            248 93 return
          </CharString>
          <CharString index="419">
            184 callsubr
            29 return
          </CharString>
          <CharString index="420">
            90 35 -89 183 32 24 333 callgsubr
            return
          </CharString>
          <CharString index="421">
            93 319 90 return
          </CharString>
          <CharString index="422">
            209 callsubr
            -31 -7 -37 1 -43 256 callsubr
            return
          </CharString>
          <CharString index="423">
            -86 callsubr
            -319 280 rmoveto
            return
          </CharString>
          <CharString index="424">
            306 callgsubr
            vhcurveto
            endchar
          </CharString>
          <CharString index="425">
            146 callsubr
            endchar
          </CharString>
          <CharString index="426">
            94 68 376 -92 callsubr
            return
          </CharString>
          <CharString index="427">
            232 callgsubr
            76 77 return
          </CharString>
          <CharString index="428">
            70 153 23 callgsubr
            64 callgsubr
            return
          </CharString>
          <CharString index="429">
            148 345 callgsubr
            return
          </CharString>
          <CharString index="430">
            89 35 31 13 22 26 vhcurveto
            261 callsubr
            return
          </CharString>
          <CharString index="431">
            574 13 callsubr
            return
          </CharString>
          <CharString index="432">
            -106 callgsubr
            -274 hlineto
            return
          </CharString>
          <CharString index="433">
            -77 callgsubr
            287 132 callsubr
            return
          </CharString>
          <CharString index="434">
            -77 callgsubr
            510 -125 hlineto
            -69 7 -75 -24 -47 -64 rrcurveto
            return
          </CharString>
          <CharString index="435">
            525 callgsubr
            34 77 291 83 return
          </CharString>
          <CharString index="436">
            70 -66 66 -20 430 callsubr
            return
          </CharString>
          <CharString index="437">
            92 callgsubr
            43 307 callgsubr
            return
          </CharString>
          <CharString index="438">
            rmoveto
            -87 vlineto
            -75 -1 85 131 rlineto
            return
          </CharString>
          <CharString index="439">
            -331 7 -21 485 12 0 -20 return
          </CharString>
          <CharString index="440">
            vlineto
            -178 -552 392 callgsubr
            return
          </CharString>
          <CharString index="441">
            -147 -14 87 323 92 return
          </CharString>
          <CharString index="442">
            367 callgsubr
            rrcurveto
            return
          </CharString>
          <CharString index="443">
            45 -18 64 -47 42 vhcurveto
            return
          </CharString>
          <CharString index="444">
            -210 -21 126 46 return
          </CharString>
          <CharString index="445">
            490 callgsubr
            70 -56 60 -72 28 hvcurveto
            183 callsubr
            return
          </CharString>
          <CharString index="446">
            114 -74 callgsubr
            return
          </CharString>
          <CharString index="447">
            57 119 77 -77 234 -232 32.5 129.5 -92 callsubr
            406 83 return
          </CharString>
          <CharString index="448">
            -14 callsubr
            57 callgsubr
          </CharString>
          <CharString index="449">
            83 hintmask 10111100
            -82 callgsubr
            return
          </CharString>
          <CharString index="450">
            -47 47 41 403 callgsubr
            85 69 -52 71 -19 63 192 78 -74 68 -24 73 return
          </CharString>
          <CharString index="451">
            hlineto
            -13 333 260 callgsubr
            46 -319 284 233 16 -211 rrcurveto
            return
          </CharString>
          <CharString index="452">
            -70 130 callsubr
            return
          </CharString>
          <CharString index="453">
            -251 -15 83 -62 -21 406 300 callsubr
            return
          </CharString>
          <CharString index="454">
            -60 37 -29 43 39 vvcurveto
            34 22 20 29 15 12 -5 -15 13 vhcurveto
            -8 -26 -1 -31 7 -32 45 4 rcurveline
            return
          </CharString>
          <CharString index="455">
            -106 callsubr
            -675 hlineto
            endchar
          </CharString>
          <CharString index="456">
            287 rmoveto
            213 186 callsubr
            -263 hlineto
            return
          </CharString>
          <CharString index="457">
            -90 hlineto
            -141 -64 -82 -86 -136 161 -106 117 return
          </CharString>
          <CharString index="458">
            30 -50 60 callsubr
            -170 hlineto
            return
          </CharString>
          <CharString index="459">
            -77 callgsubr
            332 -145 -75 hlineto
            -129 -75 -66 -98 return
          </CharString>
          <CharString index="460">
            vhcurveto
            31 -96 callsubr
            229 -94 callsubr
            return
          </CharString>
          <CharString index="461">
            223 callsubr
            hstemhm
            32 58 return
          </CharString>
          <CharString index="462">
            273 callgsubr
            -93 -44 -30 -67 -6 -58 19 rlinecurve
            return
          </CharString>
          <CharString index="463">
            -92 callsubr
            68 return
          </CharString>
          <CharString index="464">
            86 -86 271 -247 247 -70 489 callsubr
            84 172 76 -15 15 58 68 -61 83 return
          </CharString>
          <CharString index="465">
            28 33 338 callgsubr
            207 hlineto
            6 48 -14 6 -20 4 -21 4 rlinecurve
            123 vlineto
            78 12 rlineto
            return
          </CharString>
          <CharString index="466">
            -39 62 rlineto
            -35 -37 -58 -32 -41 hhcurveto
            -27 -10 14 13 24 35 34 96 20 hvcurveto
            9 22 -43 50 rlineto
            return
          </CharString>
          <CharString index="467">
            124 -5 75 -74 53 298 76 -76 261 510 callsubr
            38 75 355 83 64 69 return
          </CharString>
          <CharString index="468">
            -77 callgsubr
            171 hlineto
            9 -236 -127 -16 -110 12 -78 30 rlinecurve
            60 41 28 47 50 vvcurveto
            return
          </CharString>
          <CharString index="469">
            60 -37 62 -75 60 vhcurveto
            101 454 callsubr
          </CharString>
          <CharString index="470">
            rmoveto
            252 callsubr
            return
          </CharString>
          <CharString index="471">
            603 109 callsubr
            return
          </CharString>
          <CharString index="472">
            74 221 83 528 callgsubr
            return
          </CharString>
          <CharString index="473">
            -88 15 62 -50 72 hhcurveto
            endchar
          </CharString>
          <CharString index="474">
            432 callsubr
            80 return
          </CharString>
          <CharString index="475">
            -215 rmoveto
            35 -17 rlineto
            return
          </CharString>
          <CharString index="476">
            -33 -29 -41 -23 -46 -17 return
          </CharString>
          <CharString index="477">
            500 383 callsubr
            return
          </CharString>
          <CharString index="478">
            222 76 29 62 -52 86 115 232 callsubr
            35 86 325 386 callsubr
            return
          </CharString>
          <CharString index="479">
            -77 callgsubr
            101 -289 hlineto
            431 callsubr
            -3 callsubr
            return
          </CharString>
          <CharString index="480">
            -62 66 rlineto
            195 callsubr
            endchar
          </CharString>
          <CharString index="481">
            162 473 rmoveto
            79 80 43 63 -44 vhcurveto
            22 -48 return
          </CharString>
          <CharString index="482">
            72 -70 -70 callsubr
            140 -92 callsubr
            114 return
          </CharString>
          <CharString index="483">
            410 callsubr
            -152 hlineto
            -104 50 rlineto
            -88 27 return
          </CharString>
          <CharString index="484">
            278 callsubr
            23 -18 28 -16 31 -10 return
          </CharString>
          <CharString index="485">
            -6 32 rlineto
            -220 hlineto
            -1 -47 return
          </CharString>
          <CharString index="486">
            74 -32 92 callgsubr
            return
          </CharString>
          <CharString index="487">
            rmoveto
            6 -44 rlineto
            338 hlineto
            return
          </CharString>
          <CharString index="488">
            -77 callgsubr
            409 return
          </CharString>
          <CharString index="489">
            81.5 return
          </CharString>
          <CharString index="490">
            rmoveto
            -78 callgsubr
            return
          </CharString>
          <CharString index="491">
            103 398 103 return
          </CharString>
          <CharString index="492">
            101 53 -4 -34 return
          </CharString>
          <CharString index="493">
            77 108 81 return
          </CharString>
          <CharString index="494">
            124 callsubr
            -162 hlineto
            return
          </CharString>
          <CharString index="495">
            473 rmoveto
            79 79 43 64 -44 vhcurveto
            23 -48 -11 -72 -100 -60 rrcurveto
            -38 29 -17 37 36 vvcurveto
            return
          </CharString>
          <CharString index="496">
            -321 -89 callsubr
            return
          </CharString>
          <CharString index="497">
            103 callsubr
            -126 -215 79 callgsubr
            return
          </CharString>
          <CharString index="498">
            560 269 callgsubr
          </CharString>
          <CharString index="499">
            48 20 rlineto
            97 return
          </CharString>
          <CharString index="500">
            hintmask 0110101101100000
            -81 callsubr
            hintmask 0110101110100000
            -39 -9 -27 -36 -40 vvcurveto
            return
          </CharString>
          <CharString index="501">
            -26 callsubr
            144 85 -27 75 40 91 hstemhm
            90 83 -49 38 hintmask 10101100
            return
          </CharString>
          <CharString index="502">
            rmoveto
            232 vlineto
            200 -251 rlineto
            -24 -30 -37 -13 -34 279 callgsubr
            return
          </CharString>
          <CharString index="503">
            rmoveto
            34 44 rlineto
            209 callsubr
            return
          </CharString>
          <CharString index="504">
            419 callgsubr
            endchar
          </CharString>
          <CharString index="505">
            164 139 188 callsubr
            201 -94 callsubr
            -609 hlineto
            endchar
          </CharString>
          <CharString index="506">
            -96 callsubr
            192 -94 callsubr
            return
          </CharString>
          <CharString index="507">
            427 callsubr
            hstemhm
            return
          </CharString>
          <CharString index="508">
            97 230 vlineto
            -22 76 rlineto
            -213 150 hlineto
            return
          </CharString>
          <CharString index="509">
            -61 callgsubr
            136 -6 48 63 62 return
          </CharString>
          <CharString index="510">
            191 428 callsubr
            return
          </CharString>
          <CharString index="511">
            vhcurveto
            225 callsubr
            return
          </CharString>
          <CharString index="512">
            43 -38 -44 6 -90 hhcurveto
            -192 hlineto
            return
          </CharString>
          <CharString index="513">
            19 257 callgsubr
            return
          </CharString>
          <CharString index="514">
            -28 36 51 -25 51 hhcurveto
            return
          </CharString>
          <CharString index="515">
            233 -96 callsubr
            return
          </CharString>
          <CharString index="516">
            86 199 76 -47 47 return
          </CharString>
          <CharString index="517">
            -77 callgsubr
            342 return
          </CharString>
          <CharString index="518">
            hstemhm
            50 94 -81 86 return
          </CharString>
          <CharString index="519">
            -229 -17 rlineto
            return
          </CharString>
          <CharString index="520">
            -574 551 callgsubr
            6 48 -19 8 -33 6 -30 3 rlinecurve
            hintmask 10110110
            return
          </CharString>
          <CharString index="521">
            171 callgsubr
            hstemhm
            252 93 return
          </CharString>
          <CharString index="522">
            rmoveto
            140 -187 55 35 -96 172 91 180 -56 30 -134 -190 rlineto
            return
          </CharString>
          <CharString index="523">
            hhcurveto
            434 callsubr
            return
          </CharString>
          <CharString index="524">
            98 -48 76 -64 33 353 callsubr
            return
          </CharString>
          <CharString index="525">
            253 callsubr
            116 54 -17 39 rlineto
            -94 -51 -50 34 49 vvcurveto
            return
          </CharString>
          <CharString index="526">
            19 callgsubr
            -614 hlineto
            return
          </CharString>
          <CharString index="527">
            -42 68 rlineto
            -35 -40 -59 -28 -51 hhcurveto
            -41 -27 18 30 57 95 38 77 13 hvcurveto
            return
          </CharString>
          <CharString index="528">
            431 callgsubr
            -577 -63 rmoveto
            15 -28 64 27 rlineto
            -216 vlineto
            return
          </CharString>
          <CharString index="529">
            rmoveto
            48 -19 110 195 rlineto
            18 vlineto
            -24 19 -33 15 -37 1 rrcurveto
            endchar
          </CharString>
          <CharString index="530">
            364 -18 rmoveto
            153 88 91 220 hvcurveto
            return
          </CharString>
          <CharString index="531">
            557 65 hstemhm
            60 93 236 59 -55 95 return
          </CharString>
          <CharString index="532">
            -229 530 234 hstem
            -10 385 vstem
            return
          </CharString>
          <CharString index="533">
            77 302 11 callgsubr
            102 71 return
          </CharString>
          <CharString index="534">
            176 callsubr
            186 -20 return
          </CharString>
          <CharString index="535">
            rmoveto
            -19 -3 -15 -5 -13 vhcurveto
            return
          </CharString>
          <CharString index="536">
            -29 -59 -104 -41 -55 28 rrcurveto
            return
          </CharString>
          <CharString index="537">
            20 447 callsubr
            return
          </CharString>
          <CharString index="538">
            -54 -91 -125 -37 -64 37 return
          </CharString>
          <CharString index="539">
            -92 callsubr
            48 return
          </CharString>
          <CharString index="540">
            10 -35 81 5 rlineto
            return
          </CharString>
          <CharString index="541">
            132 callgsubr
            73 hlineto
            43 22 -3 -17 21 hvcurveto
            return
          </CharString>
          <CharString index="542">
            -39 callsubr
            231 vlineto
            return
          </CharString>
          <CharString index="543">
            412 callgsubr
            222 538 callsubr
            return
          </CharString>
          <CharString index="544">
            -30 0 60 -60 62 -56 -21 43 37 419 -20 196 75 hstemhm
            102 89 return
          </CharString>
          <CharString index="545">
            357 callgsubr
            -36 36 hstemhm
            return
          </CharString>
          <CharString index="546">
            vlineto
            429 callsubr
            return
          </CharString>
          <CharString index="547">
            140 -89 119 -133 -28 return
          </CharString>
          <CharString index="548">
            -13 callgsubr
            -311 vlineto
            return
          </CharString>
          <CharString index="549">
            0 485 callgsubr
            return
          </CharString>
          <CharString index="550">
            13 20 rlineto
            26 -55 195 vlineto
            return
          </CharString>
          <CharString index="551">
            -84 -81 -70 -118 hvcurveto
            return
          </CharString>
          <CharString index="552">
            -32 32 384 callgsubr
            return
          </CharString>
          <CharString index="553">
            113 -92 46 -94 44 return
          </CharString>
          <CharString index="554">
            115 -92 callsubr
            return
          </CharString>
          <CharString index="555">
            hlineto
            385 callsubr
            229 callsubr
            hvcurveto
            -13 -36 rlineto
            hintmask 0110101010111000
            return
          </CharString>
          <CharString index="556">
            -28 callgsubr
            278 callgsubr
            return
          </CharString>
          <CharString index="557">
            -30 -26 -14 -37 -33 vvcurveto
            -96 111 -80 84 30 31 10 18 25 vhcurveto
            return
          </CharString>
          <CharString index="558">
            56 38 46 55 28 33 -11 -28 29 vhcurveto
            -12 -36 -5 -44 6 -54 rrcurveto
            return
          </CharString>
          <CharString index="559">
            hhcurveto
            464 callgsubr
            return
          </CharString>
          <CharString index="560">
            54 -33 56 -65 51 vhcurveto
            82 vlineto
            -32 28 rlineto
            95 16 56 65 74 vvcurveto
            return
          </CharString>
          <CharString index="561">
            -96 callsubr
            227 -94 callsubr
            -599 hlineto
            endchar
          </CharString>
          <CharString index="562">
            69 -61 70 167 74 -74 77 -27 77 return
          </CharString>
          <CharString index="563">
            86 -65 55 552 callgsubr
            return
          </CharString>
          <CharString index="564">
            46 239 40 hstem
            176 65 vstem
            20 return
          </CharString>
          <CharString index="565">
            64 -50 45 -45 63 51 -92 callsubr
            return
          </CharString>
          <CharString index="566">
            rmoveto
            -101 198 callsubr
            return
          </CharString>
          <CharString index="567">
            2 -21 -34 25 -51 34 -37 43 -27 rlinecurve
            return
          </CharString>
          <CharString index="568">
            -229 654 -20 return
          </CharString>
          <CharString index="569">
            160 53 rlineto
            return
          </CharString>
          <CharString index="570">
            62 -11 32 57 39 hhcurveto
            25 12 -23 -22 -22 -11 -15 -26 -32 hvcurveto
            return
          </CharString>
          <CharString index="571">
            76 -47 47 -22 60 callgsubr
            118 48 return
          </CharString>
          <CharString index="572">
            -39 -42 -28 -51 -80 -55 hvcurveto
            55 -69 rlineto
            77 53 40 63 69 vvcurveto
            return
          </CharString>
          <CharString index="573">
            vvcurveto
            559 callsubr
            vhcurveto
            37 35 rlineto
            -103 101 -23 51 45 vvcurveto
            return
          </CharString>
          <CharString index="574">
            512 callgsubr
            -112 -26 -89 31 rlinecurve
            -40 32 -21 44 40 vvcurveto
            return
          </CharString>
          <CharString index="575">
            -48 -90 -119 -20 -62 27 rrcurveto
            endchar
          </CharString>
          <CharString index="576">
            83 201 83 return
          </CharString>
          <CharString index="577" raw="1">
            2b0af786 2d0afd04 060b 
          </CharString>
          <CharString index="578">
            514 callsubr
            hstemhm
            56 56 return
          </CharString>
          <CharString index="579">
            vvcurveto
            61 -56 89 -85 -63 -49 -48 -59 -24 8 -26 16 -24 vhcurveto
            return
          </CharString>
          <CharString index="580">
            474 -20 28 -20 76 -92 callsubr
            235 77 65 74 return
          </CharString>
          <CharString index="581">
            533 callsubr
            10 -240 562 callgsubr
            rlineto
            return
          </CharString>
          <CharString index="582">
            538 481 callsubr
            return
          </CharString>
          <CharString index="583">
            319 callgsubr
            -56 return
          </CharString>
          <CharString index="584">
            120 callsubr
            402 hlineto
            return
          </CharString>
          <CharString index="585">
            77 -77 234 510 callsubr
            return
          </CharString>
          <CharString index="586">
            rlinecurve
            559 callgsubr
            return
          </CharString>
          <CharString index="587">
            270 -39 rmoveto
            34 44 rlineto
            return
          </CharString>
          <CharString index="588">
            -92 callsubr
            142 83 return
          </CharString>
          <CharString index="589">
            127 -5 55 66 58 hhcurveto
            return
          </CharString>
          <CharString index="590">
            20 255 callsubr
            return
          </CharString>
          <CharString index="591">
            -26 -126 -244 -10 rlineto
            return
          </CharString>
          <CharString index="592">
            hhcurveto
            -47 -50 -23 -47 -33 hvcurveto
            return
          </CharString>
          <CharString index="593">
            -109 97 -47 86 -41 return
          </CharString>
          <CharString index="594">
            -20 28 80 hstemhm
            83 89 return
          </CharString>
          <CharString index="595">
            hstemhm
            38 48 -42 57 return
          </CharString>
          <CharString index="596">
            -92 callsubr
            35 return
          </CharString>
          <CharString index="597">
            -77 callgsubr
            142 return
          </CharString>
          <CharString index="598">
            hstemhm
            362 67 return
          </CharString>
          <CharString index="599">
            321 rmoveto
            hintmask 11011000
            428 callgsubr
            -119 return
          </CharString>
          <CharString index="600">
            -18 rrcurveto
            -27 14 -14 22 23 vvcurveto
            20 12 20 23 12 vhcurveto
            return
          </CharString>
          <CharString index="601">
            59 callsubr
            hstemhm
            0 return
          </CharString>
          <CharString index="602">
            69 -56 76 -47 47 207 157 callgsubr
            return
          </CharString>
          <CharString index="603">
            53 4 rcurveline
            8 return
          </CharString>
          <CharString index="604">
            hlineto
            hintmask 1110111110000000
            -51 callgsubr
            hintmask 1111011110000000
            -77 callgsubr
            return
          </CharString>
          <CharString index="605">
            71 134 73 29 78 -30 73 7 58 hintmask 0111101010100000
            return
          </CharString>
          <CharString index="606">
            68 175 86 -86 271 -261 62 -62 261 return
          </CharString>
          <CharString index="607">
            35 -35 39 266 -20 34 -20 26 -20 hstemhm
            79 63 return
          </CharString>
          <CharString index="608">
            57 311 363 callsubr
            return
          </CharString>
          <CharString index="609">
            -27 -39 24 -55 66 -60 47 -29 rlinecurve
            48 20 rlineto
            87 return
          </CharString>
          <CharString index="610">
            37 35 rlineto
            -103 101 -23 51 45 vvcurveto
            67 51 47 82 return
          </CharString>
          <CharString index="611">
            186 15 callsubr
            71 -71 181 return
          </CharString>
          <CharString index="612">
            403 rmoveto
            74 49 -83 -90 -72 -31 -75 -54 -33 hvcurveto
            return
          </CharString>
          <CharString index="613">
            535 callgsubr
            -146 hlineto
            -75 48 -65 60 -39 vhcurveto
            return
          </CharString>
          <CharString index="614">
            -200 -21 170 82 -25 -21 return
          </CharString>
          <CharString index="615">
            68 164 83 -78 71 29 69 return
          </CharString>
          <CharString index="616">
            86 -92 callsubr
            return
          </CharString>
          <CharString index="617">
            -70 -92 callsubr
            return
          </CharString>
          <CharString index="618">
            hvcurveto
            462 callsubr
            return
          </CharString>
          <CharString index="619">
            12 callgsubr
            -43 return
          </CharString>
          <CharString index="620">
            34 271 rmoveto
            68 callsubr
            return
          </CharString>
          <CharString index="621">
            -97 150 callsubr
            193 90 328 90 return
          </CharString>
          <CharString index="622">
            76 542 callsubr
            return
          </CharString>
          <CharString index="623">
            62 -36 -54 29 -56 hhcurveto
            -41 -44 -15 -37 -30 hvcurveto
            return
          </CharString>
          <CharString index="624">
            -33 callsubr
            546 51.5 return
          </CharString>
          <CharString index="625">
            1 -58 46 -31 44 -20 50 -12 rlinecurve
            29 40 -43 return
          </CharString>
          <CharString index="626">
            567 callgsubr
            -57 80 return
          </CharString>
          <CharString index="627">
            -75 callsubr
            -318 hlineto
            -61 -48 -25 -39 -37 hvcurveto
            return
          </CharString>
          <CharString index="628">
            -141 -55 -72 -78 -91 75 -101 109 -104 hvcurveto
            return
          </CharString>
          <CharString index="629">
            571 callgsubr
            endchar
          </CharString>
          <CharString index="630">
            rmoveto
            254 callsubr
            return
          </CharString>
          <CharString index="631">
            rmoveto
            -65 482 65 vlineto
            endchar
          </CharString>
          <CharString index="632">
            -92 -94 -61 -128 hvcurveto
            return
          </CharString>
          <CharString index="633">
            -101 118 -84 125 return
          </CharString>
          <CharString index="634">
            -44 -30 -67 -9 -57 19 return
          </CharString>
          <CharString index="635">
            70 -59 59 -20 20 hstemhm
            return
          </CharString>
          <CharString index="636">
            489 callsubr
            86 return
          </CharString>
          <CharString index="637">
            -92 callsubr
            66 83 return
          </CharString>
          <CharString index="638">
            vlineto
            49 -31 19 6 rlineto
            return
          </CharString>
          <CharString index="639">
            48 96 41 112 38 return
          </CharString>
          <CharString index="640">
            -77 callgsubr
            127 hlineto
            return
          </CharString>
          <CharString index="641">
            -5 57 56 rlineto
            return
          </CharString>
          <CharString index="642">
            hlineto
            hintmask 10011011
            -51 callgsubr
            hintmask 10101011
            -77 callgsubr
            return
          </CharString>
          <CharString index="643">
            -19 15 -10 16 19 255 callsubr
            return
          </CharString>
          <CharString index="644">
            242 382 rmoveto
            50 57 -20 -32 53 hvcurveto
            return
          </CharString>
          <CharString index="645">
            vlineto
            31 -46 48 -48 37 -23 48 20 rcurveline
            97 return
          </CharString>
          <CharString index="646">
            -73 259 callgsubr
            return
          </CharString>
          <CharString index="647">
            52 546.5 51.5 return
          </CharString>
          <CharString index="648">
            1 565 callsubr
            return
          </CharString>
          <CharString index="649">
            -47 47 136 253 callgsubr
            return
          </CharString>
          <CharString index="650">
            319 callsubr
            200 76 return
          </CharString>
          <CharString index="651">
            -20 -38 31 -47 55 -36 50 -20 rlinecurve
            41 24 return
          </CharString>
          <CharString index="652">
            -94 callsubr
            -704 hlineto
            endchar
          </CharString>
          <CharString index="653">
            hlineto
            hintmask 0110011110000000
            -51 callgsubr
            return
          </CharString>
          <CharString index="654">
            71 55 114 41 61 -6 return
          </CharString>
          <CharString index="655">
            -92 callsubr
            148 48 return
          </CharString>
          <CharString index="656">
            -13 callsubr
            316 93 return
          </CharString>
          <CharString index="657">
            hhcurveto
            -46 -45 -30 -38 -35 hvcurveto
            return
          </CharString>
          <CharString index="658">
            -77 callgsubr
            80 -237 hlineto
            return
          </CharString>
          <CharString index="659">
            5 21 192 callgsubr
            return
          </CharString>
          <CharString index="660">
            161 -48 hvcurveto
            -50 -16 rlineto
            return
          </CharString>
          <CharString index="661">
            -139 149 -102 136 return
          </CharString>
          <CharString index="662">
            13 -36 39 -35 20 -2 rrcurveto
            return
          </CharString>
          <CharString index="663">
            hintmask 11101110
            -77 callgsubr
            return
          </CharString>
          <CharString index="664">
            hintmask 11010000
            -77 callgsubr
            return
          </CharString>
          <CharString index="665">
            hintmask 10101010
            -77 callgsubr
            return
          </CharString>
          <CharString index="666">
            -87 61 -75 105 -100 return
          </CharString>
          <CharString index="667">
            -21 69 70 83 76 return
          </CharString>
          <CharString index="668">
            -620 339 rmoveto
            return
          </CharString>
          <CharString index="669">
            55 -29 60 -54 41 return
          </CharString>
          <CharString index="670">
            18 -21 97 68 return
          </CharString>
          <CharString index="671">
            26 -23 -24 10 -26 hhcurveto
            -57 -35 -47 -49 return
          </CharString>
          <CharString index="672">
            vhcurveto
            -92 439 callsubr
            return
          </CharString>
          <CharString index="673">
            hlineto
            -104 50 rlineto
            -88 27 -105 -63 -103 vvcurveto
            return
          </CharString>
          <CharString index="674">
            -68 -38 -76 -81 -46 -31 24 46 -34 vhcurveto
            return
          </CharString>
          <CharString index="675">
            307 callgsubr
            379 177 callgsubr
            return
          </CharString>
          <CharString index="676">
            1 rlineto
            43 -17 23 -36 -33 vvcurveto
            -40 -34 return
          </CharString>
          <CharString index="677">
            13 -45 rlineto
            141 34 41 73 42 vvcurveto
            return
          </CharString>
          <CharString index="678">
            413 callgsubr
            -271 74 -74 271 return
          </CharString>
          <CharString index="679">
            -1 hhcurveto
            -1 -1 0 0 -1 -1 rrcurveto
            -1 return
          </CharString>
          <CharString index="680">
            37 35 rlineto
            -107 return
          </CharString>
          <CharString index="681">
            90 hstem
            32 66 return
          </CharString>
          <CharString index="682">
            hintmask 01011010
            63 -9 22 147 rlineto
            return
          </CharString>
          <CharString index="683">
            752 85 88 91 hstem
            -538 return
          </CharString>
          <CharString index="684">
            48 93 33 110 47 30 rrcurveto
            return
          </CharString>
          <CharString index="685">
            -167 46 131 -21 21 68 return
          </CharString>
          <CharString index="686">
            96 -44 71 vhcurveto
            endchar
          </CharString>
          <CharString index="687">
            -97 510 rmoveto
            return
          </CharString>
          <CharString index="688">
            hintmask 110000101011011010000000
            return
          </CharString>
          <CharString index="689">
            7.5 return
          </CharString>
          <CharString index="690">
            hintmask 100000001101101111000000
            return
          </CharString>
          <CharString index="691">
            539 314 rmoveto
            return
          </CharString>
          <CharString index="692">
            hlineto
            3 -1 rlineto
            return
          </CharString>
          <CharString index="693">
            hlineto
            hintmask 10000001
            18 115 -63 8 rlineto
            hintmask 00111001
            -19 -123 rlineto
            return
          </CharString>
          <CharString index="694">
            -152 36 -157 61 110 vvcurveto
            79 83 21 74 vhcurveto
            return
          </CharString>
          <CharString index="695">
            rmoveto
            81 -72 47 131 123 hhcurveto
            return
          </CharString>
          <CharString index="696">
            30 72 rlineto
            42 -63 -55 20 -69 hhcurveto
            return
          </CharString>
          <CharString index="697">
            71 91 46 111 1 vhcurveto
            -92 vlineto
            return
          </CharString>
          <CharString index="698">
            hstem
            60 482 vstem
            60 264 rmoveto
            return
          </CharString>
          <CharString index="699">
            vvcurveto
            -122 132 -94 116 return
          </CharString>
          <CharString index="700">
            hintmask 1100011011111000
            return
          </CharString>
        <CharString name=".notdef">
          -82 23 66 304 65 hstem
          47 58 304 56 vstem
          47 458 rmoveto
          -435 418 435 vlineto
          -56 -369 rmoveto
          -304 304 304 hlineto
          endchar
        </CharString>
        <CharString name="A">
          -20 callsubr
          endchar
        </CharString>
        <CharString name="AE">
          285 0 -33 callsubr
          -52.5 70 -70 181 20 61 27 73.5 218 511 callgsubr
          -53 53 -49.5 49.5 hstemhm
          431 93 -93 322 hintmask 0101010010000000
          255 262 rmoveto
          hintmask 0101001010000000
          176 335 rlineto
          -335 vlineto
          -451 -227 rmoveto
          6 -35 rlineto
          258 hlineto
          hintmask 1001010010000000
          1 47 -97 11 75 144 rlineto
          -1 208 vlineto
          hintmask 0101010010000000
          -135 vlineto
          -22 -7 -43 -14 -20 -10 6 -35 rcurveline
          466 hlineto
          hintmask 0011010010000000
          73 callsubr
          hintmask 0101110010000000
          -26 -108 -227 -10 rlineto
          229 vlineto
          hintmask 0101110001000000
          229 -10 rlineto
          87 vlineto
          hintmask 0101110010000000
          412 callsubr
          231 vlineto
          218 -9 12 -91 rlineto
          54 hlineto
          11 61 2 71 -3 33 rrcurveto
          -511 hlineto
          hintmask 0101000110000000
          -1 -48 55 -3 -287 -530 rlineto
          hintmask 0101001010000000
          -17 -5 -54 -17 -23 -12 rrcurveto
          endchar
        </CharString>
        <CharString name="Aacute">
          96 callsubr
          -145 75 44 callgsubr
          -229 -612 rmoveto
          110 282 112 -282 rlineto
          endchar
        </CharString>
        <CharString name="Abreve">
          19 callsubr
          440 68 hstemhm
          405 75 hintmask 01111000
          -102 callsubr
          hintmask 10111000
          -86 callsubr
          -103 440 rmoveto
          130 callgsubr
          366 callsubr
        </CharString>
        <CharString name="Acircumflex">
          19 callsubr
          539 72 hstemhm
          -20 716 hintmask 01101000
          -102 callsubr
          hintmask 10111000
          -86 callsubr
          -293 476 rmoveto
          44 -42 118 callgsubr
        </CharString>
        <CharString name="Adieresis">
          -20 callsubr
          -203 471 -87 callgsubr
        </CharString>
        <CharString name="Agrave">
          96 callsubr
          73 18 123 callgsubr
          -222 -430 rmoveto
          110 282 112 -282 rlineto
          endchar
        </CharString>
        <CharString name="Alpha">
          -20 callsubr
          endchar
        </CharString>
        <CharString name="Alphaacute">
          28 callgsubr
        </CharString>
        <CharString name="Alphaasper">
          19 callsubr
          392 -20 hstemhm
          -20 716 -671 -13 callsubr
          hintmask 01111000
          -102 callsubr
          hintmask 10111000
          -86 callsubr
          hintmask 01110100
          -313 156 -77 callsubr
          hintmask 01110010
          -81 callsubr
          hintmask 01110100
          -89 callgsubr
        </CharString>
        <CharString name="Alphaasperacute">
          19 callsubr
          392 -20 hstemhm
          -131 -13 callsubr
          -120 827 hintmask 01110010
          -102 callsubr
          hintmask 10110010
          117 callsubr
          173 rmoveto
          35 -17 -97 callsubr
          hintmask 01111000
          271 callsubr
          hintmask 01110100
          -81 callsubr
          hintmask 01111000
          -89 callgsubr
        </CharString>
        <CharString name="Alphaasperacuteiotasub">
          495 callgsubr
          392 -20 hstemhm
          -131 -13 callsubr
          -120 827 hintmask 1101110010000000
          -102 callsubr
          hintmask 1110110010000000
          117 callsubr
          173 rmoveto
          35 -17 -97 callsubr
          266 -879 -94 callgsubr
          hintmask 1101111000000000
          -376 643 -77 callsubr
          hintmask 1101110100000000
          -81 callsubr
          hintmask 1101111000000000
          -89 callgsubr
        </CharString>
        <CharString name="Alphaaspergrave">
          19 callsubr
          392 -20 hstemhm
          -137 -13 callsubr
          -120 833 hintmask 01110010
          -102 callsubr
          hintmask 10110010
          77 callgsubr
          hintmask 01111000
          6 callgsubr
          hintmask 01110100
          -81 callsubr
          hintmask 01111000
          -89 callgsubr
        </CharString>
        <CharString name="Alphaaspergraveiotasub">
          495 callgsubr
          392 -20 hstemhm
          -137 -13 callsubr
          -120 833 hintmask 1101110010000000
          -102 callsubr
          hintmask 1110110010000000
          77 callgsubr
          330 -846 -94 callgsubr
          hintmask 1101111000000000
          -382 643 -77 callsubr
          hintmask 1101110100000000
          -81 callsubr
          hintmask 1101111000000000
          -89 callgsubr
        </CharString>
        <CharString name="Alphaasperiotasub">
          495 callgsubr
          392 -20 hstemhm
          -20 716 -671 -13 callsubr
          hintmask 1101111000000000
          -102 callsubr
          hintmask 1110111000000000
          -86 callsubr
          -93 -487 -94 callgsubr
          hintmask 1101110100000000
          -220 643 -77 callsubr
          hintmask 1101110010000000
          -81 callsubr
          hintmask 1101110100000000
          -89 callgsubr
        </CharString>
        <CharString name="Alphaaspertilde">
          19 callsubr
          336 73 -13 -20 hstemhm
          -124 820 -721 -13 callsubr
          hintmask 01110100
          -102 callsubr
          hintmask 10110100
          316 callsubr
          hintmask 01101100
          44 25 33 73 13 hvcurveto
          -28 10 rlineto
          hintmask 01110100
          -25 -43 rlineto
          -16 -42 -87 72 -65 hhcurveto
          -44 -25 -33 -73 -13 hvcurveto
          28 -12 24 41 rlineto
          hintmask 10110100
          21 43 87 -73 65 hhcurveto
          hintmask 01110010
          -44 -249 -77 callsubr
          hintmask 01110001
          -81 callsubr
          hintmask 01110010
          -89 callgsubr
        </CharString>
        <CharString name="Alphaaspertildeiotasub">
          495 callgsubr
          336 73 -13 -20 hstemhm
          -124 820 -721 -13 callsubr
          hintmask 1101110100000000
          -102 callsubr
          hintmask 1110110100000000
          316 callsubr
          hintmask 1101101100000000
          44 25 33 73 13 hvcurveto
          -28 10 rlineto
          hintmask 1101110100000000
          -25 -43 rlineto
          -16 -42 -87 72 -65 hhcurveto
          -44 -25 -33 -73 -13 hvcurveto
          28 -12 24 41 rlineto
          hintmask 1110110100000000
          21 43 87 -73 65 hhcurveto
          hintmask 1101110010000000
          226 -767 -94 callgsubr
          -270 518 -77 callsubr
          hintmask 1101110001000000
          -81 callsubr
          hintmask 1101110010000000
          -89 callgsubr
        </CharString>
        <CharString name="Alphabreve">
          19 callsubr
          440 68 hstemhm
          405 75 hintmask 01111000
          -102 callsubr
          hintmask 10111000
          -86 callsubr
          -103 440 rmoveto
          130 callgsubr
          366 callsubr
        </CharString>
        <CharString name="Alphagrave">
          19 callsubr
          392 -20 hstemhm
          -20 716 hintmask 01111000
          -102 callsubr
          hintmask 10111000
          -86 callsubr
          -433 341 -59 callgsubr
          endchar
        </CharString>
        <CharString name="Alphaiotasub">
          495 callgsubr
          hstemhm
          -20 716 hintmask 11011100
          -102 callsubr
          hintmask 11101100
          -86 callsubr
          -93 -487 -94 callgsubr
          endchar
        </CharString>
        <CharString name="Alphalenis">
          19 callsubr
          392 -20 hstemhm
          91 68 hintmask 01111000
          -102 callsubr
          hintmask 10111000
          -86 callsubr
          -407 185 -105 callsubr
        </CharString>
        <CharString name="Alphalenisacute">
          19 callsubr
          392 -20 hstemhm
          -61 68 hintmask 01111000
          -102 callsubr
          hintmask 10111000
          117 callsubr
          173 168 callgsubr
        </CharString>
        <CharString name="Alphalenisacuteiotasub">
          495 callgsubr
          392 -20 hstemhm
          -61 68 hintmask 11011110
          -102 callsubr
          hintmask 11101110
          117 callsubr
          173 rmoveto
          35 -17 -97 callsubr
          266 -879 -94 callgsubr
          -466 672 -105 callsubr
        </CharString>
        <CharString name="Alphalenisgrave">
          19 callsubr
          392 -20 hstemhm
          -80 68 hintmask 01111000
          -102 callsubr
          hintmask 10111000
          1 47 -73 8 -254 619 rlineto
          -149 -412 rmoveto
          110 282 112 -282 rlineto
          -423 341 -29 callgsubr
        </CharString>
        <CharString name="Alphalenisgraveiotasub">
          495 callgsubr
          392 -20 hstemhm
          -80 68 hintmask 11011110
          -102 callsubr
          hintmask 11101110
          77 callgsubr
          330 -846 -94 callgsubr
          -485 672 -105 callsubr
        </CharString>
        <CharString name="Alphalenisiotasub">
          495 callgsubr
          392 -20 hstemhm
          91 68 hintmask 11011110
          -102 callsubr
          hintmask 11101110
          -86 callsubr
          -93 -487 -94 callgsubr
          -314 672 -105 callsubr
        </CharString>
        <CharString name="Alphalenistilde">
          19 callsubr
          336 73 -13 -20 hstemhm
          31 68 hintmask 01110100
          -102 callsubr
          hintmask 10110100
          316 callsubr
          hintmask 01101100
          44 25 33 73 13 hvcurveto
          -28 10 rlineto
          hintmask 01110100
          -25 -43 rlineto
          -16 -42 -87 72 -65 hhcurveto
          -44 -25 -33 -73 -13 hvcurveto
          28 -12 24 41 rlineto
          hintmask 10110100
          21 43 87 -73 65 hhcurveto
          hintmask 01110100
          -148 -220 -105 callsubr
        </CharString>
        <CharString name="Alphalenistildeiotasub">
          495 callgsubr
          336 73 -13 -20 hstemhm
          31 68 hintmask 11011101
          -102 callsubr
          hintmask 11101101
          316 callsubr
          hintmask 11011011
          44 25 33 73 13 hvcurveto
          -28 10 rlineto
          hintmask 11011101
          -25 -43 rlineto
          -16 -42 -87 72 -65 hhcurveto
          -44 -25 -33 -73 -13 hvcurveto
          28 -12 24 41 rlineto
          hintmask 11101101
          21 43 87 -73 65 hhcurveto
          hintmask 11011101
          226 -767 -94 callgsubr
          -374 547 -105 callsubr
        </CharString>
        <CharString name="Alphawithmacron">
          19 callsubr
          480 497 callgsubr
          -20 716 hintmask 01110100
          -102 callsubr
          hintmask 10110100
          -86 callsubr
          -294 524 380 callsubr
          hintmask 01101100
          47 34 rlineto
          hintmask 01110100
          -5 35 rlineto
          -273 hlineto
          hintmask 10110100
          -31 -43 -5 -20 -39 hvcurveto
          endchar
        </CharString>
        <CharString name="Alphawithtonos">
          28 callgsubr
        </CharString>
        <CharString name="Amacron">
          19 callsubr
          480 497 callgsubr
          -20 716 hintmask 01110100
          -102 callsubr
          hintmask 10110100
          -86 callsubr
          -294 524 380 callsubr
          hintmask 01101100
          47 34 rlineto
          hintmask 01110100
          -5 35 rlineto
          -273 hlineto
          hintmask 10110100
          -31 -43 -5 -20 -39 hvcurveto
          endchar
        </CharString>
        <CharString name="Aogonek">
          102 -254 68 186 17 callsubr
          hstemhm
          436 73 hintmask 10111000
          -103 callgsubr
          130 hlineto
          -76 -43 -45 -56 -53 418 callsubr
          49 49 46 70 34 vhcurveto
          67 hlineto
          hintmask 11011000
          -86 callsubr
          endchar
        </CharString>
        <CharString name="Aring">
          19 callsubr
          449 41 115 61 hstemhm
          226 51 115 51 hintmask 01111110
          -102 callsubr
          hintmask 10111110
          -86 callsubr
          -106 490 37 callsubr
          endchar
        </CharString>
        <CharString name="Atilde">
          19 callsubr
          522 78 hstemhm
          -20 716 hintmask 01101000
          -102 callsubr
          hintmask 10111000
          -86 callsubr
          5 441 rmoveto
          -30 callsubr
          endchar
        </CharString>
        <CharString name="B">
          -6 callsubr
        </CharString>
        <CharString name="Beta">
          -6 callsubr
        </CharString>
        <CharString name="C">
          -36 -15 83 529 73 80 callsubr
          endchar
        </CharString>
        <CharString name="Cacute">
          -36 -15 83 529 73 80 callsubr
          -133 764 266 callgsubr
        </CharString>
        <CharString name="Ccaron">
          -36 -15 83 529 73 34 65 80 callsubr
          -200 825 rmoveto
          0 callsubr
        </CharString>
        <CharString name="Ccedilla">
          -36 337 callsubr
          68 -21 609 73 271 callgsubr
          240 95 callsubr
          29 44 195 -7 callgsubr
          -161 86 -147 185 -21 hvcurveto
          -47 -54 241 callsubr
        </CharString>
        <CharString name="Chi">
          -3 callgsubr
        </CharString>
        <CharString name="D">
          502 callgsubr
          78 callgsubr
          endchar
        </CharString>
        <CharString name="Dcaron">
          502 callgsubr
          46 65 78 callgsubr
          95 778 rmoveto
          0 callsubr
        </CharString>
        <CharString name="Dcroat">
          13 callgsubr
        </CharString>
        <CharString name="Delta">
          34 0 75 hstem
          30 558 vstem
          30 64 rmoveto
          19 -64 rlineto
          515 hlineto
          24 68 -249 606 -79 -27 7 -17 rlineto
          33 -85 rmoveto
          185 -469 -371 -2 rlineto
          endchar
        </CharString>
        <CharString name="E">
          -58 callsubr
          171 callsubr
          hintmask 10101100
          44 602 87 callsubr
        </CharString>
        <CharString name="Eacute">
          -58 callsubr
          171 callsubr
          hintmask 10101100
          180 143 callsubr
          -361 -272 87 callsubr
        </CharString>
        <CharString name="Ecaron">
          -58 callsubr
          54 65 -54 callsubr
          hintmask 10101110
          -5 callgsubr
          68 160 rmoveto
          0 callsubr
        </CharString>
        <CharString name="Ecircumflex">
          -58 callsubr
          151 72 -54 callsubr
          hintmask 10101110
          -5 callgsubr
          60 88 rmoveto
          44 -42 118 callgsubr
        </CharString>
        <CharString name="Edieresis">
          -58 callsubr
          171 callsubr
          hintmask 10101100
          44 602 -67 callgsubr
          150 83 -87 callgsubr
        </CharString>
        <CharString name="Edotaccent">
          -58 callsubr
          171 callsubr
          hintmask 10101100
          44 602 -67 callgsubr
          251 83 -19 callgsubr
        </CharString>
        <CharString name="Egrave">
          -58 callsubr
          171 callsubr
          hintmask 10101100
          398 692 123 callgsubr
          -354 -90 87 callsubr
        </CharString>
        <CharString name="Emacron">
          -58 callsubr
          92 69 -35 35 171 callsubr
          hintmask 1010110100000000
          -32 callgsubr
          hintmask 0110110100000000
          73 callsubr
          hintmask 1010110100000000
          -26 -108 -227 -10 rlineto
          229 vlineto
          hintmask 1010110010000000
          229 -10 rlineto
          87 vlineto
          hintmask 1011010100000000
          412 callsubr
          238 vlineto
          218 -15 12 -92 rlineto
          54 hlineto
          hintmask 1010110100000000
          -5 callgsubr
          59 136 380 callsubr
          hintmask 1010101100000000
          47 34 rlineto
          hintmask 1010110100000000
          363 callgsubr
        </CharString>
        <CharString name="Eogonek">
          -31 -254 68 186 70 219 73.5 222 114 callsubr
          171 callsubr
          -127 73 hintmask 11101101
          44 602 rmoveto
          71 -4 rlineto
          -535 259 callsubr
          395 hlineto
          -76 -43 -45 -56 -53 418 callsubr
          49 49 46 70 34 vhcurveto
          73 callsubr
          -26 -108 -227 -10 rlineto
          229 vlineto
          hintmask 11101010
          229 -10 rlineto
          87 vlineto
          hintmask 11110101
          412 callsubr
          238 vlineto
          218 -15 12 -92 rlineto
          54 hlineto
          hintmask 11101101
          -5 callgsubr
          endchar
        </CharString>
        <CharString name="Epsilon">
          -58 callsubr
          171 callsubr
          hintmask 10101100
          44 602 87 callsubr
        </CharString>
        <CharString name="Epsilonacute">
          -31 0 70 -70 181 108 73.5 222 65.5 -50 50 4 -20 -54 callsubr
          hintmask 10101010
          309 callsubr
          368 callsubr
          hintmask 10100110
          -97 callsubr
          endchar
        </CharString>
        <CharString name="Epsilonasper">
          32 callsubr
          -160 -13 callsubr
          155 -8 callsubr
          hintmask 1010101010000000
          -5 callgsubr
          -101 -232 -77 callsubr
          hintmask 1010010110000000
          -81 callsubr
          hintmask 1010011010000000
          -39 -9 -27 -36 -40 vvcurveto
          hintmask 1010101010000000
          217 callgsubr
        </CharString>
        <CharString name="Epsilonasperacute">
          32 callsubr
          -316 -13 callsubr
          311 -8 callsubr
          hintmask 1010100010000000
          309 callsubr
          368 callsubr
          hintmask 1010011010000000
          -97 callsubr
          271 callsubr
          hintmask 1010010110000000
          -81 callsubr
          hintmask 1010011010000000
          -89 callgsubr
        </CharString>
        <CharString name="Epsilonaspergrave">
          32 callsubr
          -322 -13 callsubr
          317 -8 callsubr
          hintmask 1010100010000000
          309 callsubr
          331 callgsubr
          hintmask 1010011010000000
          84 callgsubr
          hintmask 1010010110000000
          -81 callsubr
          hintmask 1010011010000000
          -89 callgsubr
        </CharString>
        <CharString name="Epsilongrave">
          -31 0 70 -70 181 108 73.5 222 65.5 -50 50 4 -20 -54 callsubr
          hintmask 10101010
          -5 callgsubr
          -221 331 callgsubr
          hintmask 10100110
          523 callgsubr
        </CharString>
        <CharString name="Epsilonlenis">
          32 callsubr
          -94 68 141 -8 callgsubr
          hintmask 1010101100000000
          -5 callgsubr
          -195 -203 -1 callgsubr
          hintmask 1010011100000000
          68 34 36 63 54 vvcurveto
          40 -27 36 -39 9 vhcurveto
          -35 -17 -13 -24 -6 -35 52 -40 rcurveline
          hintmask 1010101100000000
          -68 callsubr
          endchar
        </CharString>
        <CharString name="Epsilonlenisacute">
          32 callsubr
          -246 68 293 -8 callgsubr
          hintmask 1010100100000000
          309 callsubr
          368 callsubr
          hintmask 1010011100000000
          -97 callsubr
          -200 -207 -105 callsubr
        </CharString>
        <CharString name="Epsilonlenisgrave">
          32 callsubr
          -265 68 312 -8 callgsubr
          hintmask 1010100100000000
          309 callsubr
          331 callgsubr
          hintmask 1010011100000000
          -63 callsubr
        </CharString>
        <CharString name="Epsilonwithtonos">
          -31 0 70 -70 181 108 73.5 222 65.5 -50 50 4 -20 -54 callsubr
          hintmask 10101010
          309 callsubr
          368 callsubr
          hintmask 10100110
          -97 callsubr
          endchar
        </CharString>
        <CharString name="Eta">
          340 callgsubr
          hstemhm
          115 93 323 93 hintmask 11101100
          -91 callsubr
          hintmask 11011100
          529 394 callgsubr
          -237 -323 vlineto
          hintmask 11011100
          230 394 callgsubr
          -531 vlineto
          366 callgsubr
        </CharString>
        <CharString name="Etaacute">
          340 callgsubr
          4 -20 384 callgsubr
          323 93 hintmask 11100110
          -91 callsubr
          hintmask 11010110
          529 243 callsubr
          -237 -323 vlineto
          hintmask 11010110
          230 243 callsubr
          -531 vlineto
          -73 callgsubr
          rrcurveto
          -201 403 rmoveto
          35 -17 rlineto
          hintmask 11001110
          -97 callsubr
          endchar
        </CharString>
        <CharString name="Etaasper">
          340 callgsubr
          4 -20 hstemhm
          -165 -13 callsubr
          160 93 323 93 hintmask 1110000110000000
          -91 callsubr
          hintmask 1101000110000000
          529 235 callgsubr
          -237 -323 vlineto
          hintmask 1101000110000000
          230 235 callgsubr
          -531 vlineto
          -73 callgsubr
          rrcurveto
          hintmask 1110010110000000
          -91 386 -77 callsubr
          hintmask 1100101110000000
          -81 callsubr
          hintmask 1100110110000000
          -39 -9 -27 -36 -40 vvcurveto
          hintmask 1110010110000000
          217 callgsubr
        </CharString>
        <CharString name="Etaasperacute">
          340 callgsubr
          4 -20 hstemhm
          -321 549 callsubr
          323 93 hintmask 1110000110000000
          -91 callsubr
          hintmask 1101000110000000
          529 235 callgsubr
          -237 -323 vlineto
          hintmask 1101000110000000
          230 235 callgsubr
          -531 vlineto
          -73 callgsubr
          rrcurveto
          -201 403 rmoveto
          35 -17 rlineto
          hintmask 1100110110000000
          -97 callsubr
          271 callsubr
          hintmask 1100101110000000
          -81 callsubr
          hintmask 1100110110000000
          -89 callgsubr
        </CharString>
        <CharString name="Etaasperacuteiotasub">
          157 15 callsubr
          -61 callsubr
          4 -20 hstemhm
          -321 549 callsubr
          323 93 hintmask 1111100001100000
          -91 callsubr
          hintmask 1111010001100000
          529 235 callsubr
          -237 -323 vlineto
          hintmask 1111010001100000
          230 235 callsubr
          -531 vlineto
          -73 callgsubr
          rrcurveto
          -201 403 rmoveto
          35 -17 rlineto
          hintmask 1111001101100000
          -97 callsubr
          504 -879 -94 callgsubr
          -614 234 callgsubr
        </CharString>
        <CharString name="Etaaspergrave">
          340 callgsubr
          4 -20 hstemhm
          -327 -13 callsubr
          322 93 323 93 hintmask 1110000110000000
          -91 callsubr
          hintmask 1101000110000000
          529 235 callgsubr
          -237 -323 vlineto
          hintmask 1101000110000000
          230 235 callgsubr
          -531 vlineto
          -73 callgsubr
          rrcurveto
          -201 365 callgsubr
          hintmask 1100110110000000
          84 callgsubr
          hintmask 1100101110000000
          -81 callsubr
          hintmask 1100110110000000
          -89 callgsubr
        </CharString>
        <CharString name="Etaaspergraveiotasub">
          157 15 callsubr
          -61 callsubr
          4 -20 hstemhm
          -327 -13 callsubr
          322 93 323 93 hintmask 1111100001100000
          -91 callsubr
          hintmask 1111010001100000
          529 235 callsubr
          -237 -323 vlineto
          hintmask 1111010001100000
          230 235 callsubr
          -531 vlineto
          -73 callgsubr
          rrcurveto
          -201 365 callgsubr
          hintmask 1111001101100000
          -73 callsubr
          568 -846 -94 callgsubr
          -620 234 callgsubr
        </CharString>
        <CharString name="Etaasperiotasub">
          157 15 callsubr
          -61 callsubr
          4 -20 hstemhm
          -165 -13 callsubr
          160 93 323 93 hintmask 1111100001100000
          -91 callsubr
          hintmask 1111010001100000
          529 235 callsubr
          -237 -323 vlineto
          hintmask 1111010001100000
          230 235 callsubr
          -531 vlineto
          -73 callgsubr
          rrcurveto
          367 -257 -94 callgsubr
          hintmask 1111100101100000
          -458 643 -77 callsubr
          hintmask 1111001011100000
          -81 callsubr
          hintmask 1111001101100000
          -39 -9 -27 -36 -40 vvcurveto
          hintmask 1111100101100000
          217 callgsubr
        </CharString>
        <CharString name="Etaaspertilde">
          157 0 -33 callsubr
          234.5 70 241 122 callsubr
          -215 -13 callsubr
          210 93 323 93 hintmask 1101000011000000
          -91 callsubr
          hintmask 1100100011000000
          -59 callsubr
          hintmask 1101000011000000
          -33 callgsubr
          hintmask 1100100011000000
          17 callgsubr
          hintmask 1101000011000000
          -62 callgsubr
          hintmask 1110000011000000
          580 callsubr
          hintmask 1100010011000000
          44 25 33 73 13 hvcurveto
          -28 10 rlineto
          hintmask 1110000011000000
          -99 callgsubr
          hintmask 1101001011000000
          -44 -249 -77 callsubr
          hintmask 1101000111000000
          -81 callsubr
          hintmask 1101001011000000
          -89 callgsubr
        </CharString>
        <CharString name="Etaaspertildeiotasub">
          157 15 callsubr
          -33 callsubr
          234.5 70 241 122 callsubr
          -215 -13 callsubr
          210 93 323 93 hintmask 1111010000110000
          -91 callsubr
          hintmask 1111001000110000
          -59 callsubr
          hintmask 1111010000110000
          -33 callgsubr
          hintmask 1111001000110000
          17 callgsubr
          hintmask 1111010000110000
          -62 callgsubr
          hintmask 1111100000110000
          580 callsubr
          hintmask 1111000100110000
          44 25 33 73 13 hvcurveto
          -28 10 rlineto
          hintmask 1111100000110000
          -99 callgsubr
          hintmask 1111010010110000
          464 -767 -94 callgsubr
          -508 518 -77 callsubr
          hintmask 1111010001110000
          -81 callsubr
          hintmask 1111010010110000
          -89 callgsubr
        </CharString>
        <CharString name="Etagrave">
          340 callgsubr
          4 -20 384 callgsubr
          323 93 hintmask 11100110
          -91 callsubr
          hintmask 11010110
          529 243 callsubr
          -237 -323 vlineto
          hintmask 11010110
          230 243 callsubr
          -531 vlineto
          -73 callgsubr
          rrcurveto
          -211 365 callgsubr
          hintmask 11001110
          523 callgsubr
        </CharString>
        <CharString name="Etaiotasub">
          157 15 callsubr
          -61 callsubr
          hstemhm
          115 93 323 93 hintmask 11111011
          -91 callsubr
          hintmask 11110111
          -59 callsubr
          hintmask 11111011
          -33 callgsubr
          hintmask 11110111
          17 callgsubr
          hintmask 11111011
          -62 callgsubr
          367 -257 -94 callgsubr
          endchar
        </CharString>
        <CharString name="Etalenis">
          340 callgsubr
          4 -20 hstemhm
          -99 68 146 93 323 93 hintmask 11100011
          -91 callsubr
          hintmask 11010011
          529 244 callgsubr
          -237 -323 vlineto
          hintmask 11010011
          230 244 callgsubr
          -531 vlineto
          -73 callgsubr
          rrcurveto
          hintmask 11001111
          -185 415 -105 callsubr
        </CharString>
        <CharString name="Etalenisacute">
          340 callgsubr
          4 -20 hstemhm
          -251 68 298 93 323 93 hintmask 11100011
          -91 callsubr
          hintmask 11010011
          529 244 callgsubr
          -237 -323 vlineto
          hintmask 11010011
          230 244 callgsubr
          -531 vlineto
          -73 callgsubr
          rrcurveto
          -201 403 rmoveto
          35 -17 rlineto
          hintmask 11001111
          -97 callsubr
          -200 -207 -105 callsubr
        </CharString>
        <CharString name="Etalenisacuteiotasub">
          157 15 callsubr
          -61 callsubr
          4 -20 hstemhm
          -251 68 298 93 323 93 hintmask 1111100011000000
          -91 callsubr
          hintmask 1111010011000000
          529 236 callgsubr
          -237 -323 vlineto
          hintmask 1111010011000000
          230 236 callgsubr
          -531 vlineto
          -73 callgsubr
          rrcurveto
          -201 403 rmoveto
          35 -17 rlineto
          hintmask 1111001111000000
          -97 callsubr
          504 -879 -94 callgsubr
          -704 672 -105 callsubr
        </CharString>
        <CharString name="Etalenisgrave">
          340 callgsubr
          4 -20 hstemhm
          -270 68 317 93 323 93 hintmask 11100011
          -91 callsubr
          hintmask 11010011
          529 244 callgsubr
          -237 -323 vlineto
          hintmask 11010011
          230 244 callgsubr
          -531 vlineto
          -73 callgsubr
          rrcurveto
          -201 365 callgsubr
          hintmask 11001111
          -63 callsubr
        </CharString>
        <CharString name="Etalenisgraveiotasub">
          157 15 callsubr
          -61 callsubr
          4 -20 hstemhm
          -270 68 317 93 323 93 hintmask 1111100011000000
          -91 callsubr
          hintmask 1111010011000000
          529 236 callgsubr
          -237 -323 vlineto
          hintmask 1111010011000000
          230 236 callgsubr
          -531 vlineto
          -73 callgsubr
          rrcurveto
          -201 365 callgsubr
          hintmask 1111001111000000
          -73 callsubr
          568 -846 -94 callgsubr
          -723 672 -105 callsubr
        </CharString>
        <CharString name="Etalenisiotasub">
          157 15 callsubr
          -61 callsubr
          4 -20 hstemhm
          -99 68 146 93 323 93 hintmask 1111100011000000
          -91 callsubr
          hintmask 1111010011000000
          529 236 callgsubr
          -237 -323 vlineto
          hintmask 1111010011000000
          230 236 callgsubr
          -531 vlineto
          -73 callgsubr
          rrcurveto
          367 -257 -94 callgsubr
          hintmask 1111001111000000
          -552 672 -105 callsubr
        </CharString>
        <CharString name="Etalenistilde">
          157 0 -33 callsubr
          234.5 70 241 122 callsubr
          -159 68 206 93 323 93 hintmask 1101000110000000
          -91 callsubr
          hintmask 1100100110000000
          -59 callsubr
          hintmask 1101000110000000
          -33 callgsubr
          hintmask 1100100110000000
          17 callgsubr
          hintmask 1101000110000000
          -62 callgsubr
          hintmask 1110000110000000
          580 callsubr
          hintmask 1100010110000000
          44 25 33 73 13 hvcurveto
          -28 10 rlineto
          hintmask 1110000110000000
          -99 callgsubr
          hintmask 1101001110000000
          -148 -220 -105 callsubr
        </CharString>
        <CharString name="Etalenistildeiotasub">
          157 15 callsubr
          -33 callsubr
          234.5 70 241 122 callsubr
          -159 68 206 93 323 93 hintmask 1111010001100000
          -91 callsubr
          hintmask 1111001001100000
          -59 callsubr
          hintmask 1111010001100000
          -33 callgsubr
          hintmask 1111001001100000
          17 callgsubr
          hintmask 1111010001100000
          -62 callgsubr
          hintmask 1111100001100000
          580 callsubr
          hintmask 1111000101100000
          44 25 33 73 13 hvcurveto
          -28 10 rlineto
          hintmask 1111100001100000
          -99 callgsubr
          hintmask 1111010011100000
          464 -767 -94 callgsubr
          -612 547 -105 callsubr
        </CharString>
        <CharString name="Etawithtonos">
          340 callgsubr
          4 -20 384 callgsubr
          323 93 hintmask 11100110
          -91 callsubr
          hintmask 11010110
          529 243 callsubr
          -237 -323 vlineto
          hintmask 11010110
          230 243 callsubr
          -531 vlineto
          -73 callgsubr
          rrcurveto
          -201 403 rmoveto
          35 -17 rlineto
          hintmask 11001110
          -97 callsubr
          endchar
        </CharString>
        <CharString name="Eth">
          13 callgsubr
        </CharString>
        <CharString name="Euro">
          -2 -20 83 146 55 -19 19 92 55 -19 19 201 58 hstemhm
          84 102 309 77 hintmask 11010111
          387 -20 rmoveto
          185 77 -18 48 -145 -42 -120 6 -62 59 -26 81 rlinecurve
          251 hlineto
          hintmask 10110111
          34 36 rlineto
          hintmask 11010111
          -6 19 rlineto
          -291 hlineto
          -2 17 -1 18 18 vvcurveto
          13 1 13 1 13 vhcurveto
          305 hlineto
          hintmask 11001111
          33 36 rlineto
          hintmask 11010111
          -6 19 rlineto
          -325 hlineto
          19 89 44 75 64 37 57 7 58 -17 55 -33 6 -101 rcurveline
          55 hlineto
          8 31 9 59 2 51 rrcurveto
          39 -48 -60 22 -74 hhcurveto
          -174 -92 -122 -137 -30 hvcurveto
          -65 hlineto
          -34 -36 6 -19 rlineto
          85 hlineto
          -1 -15 -1 -14 -15 vvcurveto
          -16 1 -16 2 -16 vhcurveto
          -86 hlineto
          -33 -36 6 -19 rlineto
          122 hlineto
          33 -130 99 -93 159 -6 rrcurveto
          endchar
        </CharString>
        <CharString name="F">
          -42 0 47 -47 61 -61 63 206 73.5 242 114 callsubr
          171 callsubr
          hintmask 10010110
          44 602 rmoveto
          71 -4 rlineto
          hintmask 00110110
          -535 vlineto
          hintmask 10010110
          -67 callsubr
          288 hlineto
          1 47 rlineto
          hintmask 01010110
          -117 14 rlineto
          213 vlineto
          hintmask 10010101
          229 -10 rlineto
          87 vlineto
          hintmask 10011010
          412 callsubr
          258 vlineto
          218 -15 12 -92 rlineto
          54 hlineto
          hintmask 10010110
          -5 callgsubr
          endchar
        </CharString>
        <CharString name="G">
          285 callsubr
          hstemhm
          20 102 354 93 -85 80 hintmask 11011100
          274 callsubr
          hintmask 10111100
          138 callsubr
          hintmask 11011010
          138 callgsubr
          hintmask 11011100
          459 callgsubr
          endchar
        </CharString>
        <CharString name="Gamma">
          -78 0 47 -47 61 -61 63 413 174 -65.5 114 callsubr
          384 callgsubr
          220 59 hintmask 10000111
          44 602 rmoveto
          71 -4 rlineto
          hintmask 00100111
          -535 vlineto
          hintmask 10000111
          -67 callsubr
          288 hlineto
          1 47 rlineto
          hintmask 01001011
          -117 14 rlineto
          531 vlineto
          215 -15 rlineto
          hintmask 10010011
          10 -101 rlineto
          54 hlineto
          hintmask 10000111
          12 65 1 74 -3 35 rrcurveto
          -452 hlineto
          endchar
        </CharString>
        <CharString name="Gbreve">
          285 callsubr
          32 68 hstemhm
          20 102 293 75 -14 93 -85 80 hintmask 1101110100000000
          274 callsubr
          hintmask 1011110100000000
          138 callsubr
          hintmask 1101110010000000
          138 callgsubr
          hintmask 1101110100000000
          459 callgsubr
          -25 722 rmoveto
          hintmask 1101111000000000
          130 callgsubr
          hintmask 1101110100000000
          366 callsubr
        </CharString>
        <CharString name="Gcommaaccent">
          285 callsubr
          hstemhm
          20 102 187 75 92 93 -85 80 hintmask 11011110
          274 callsubr
          hintmask 10111110
          138 callsubr
          hintmask 11011101
          138 callgsubr
          hintmask 11011110
          459 callgsubr
          -98 349 callgsubr
        </CharString>
        <CharString name="H">
          340 callgsubr
          hstemhm
          115 93 323 93 hintmask 11101100
          -91 callsubr
          hintmask 11011100
          529 394 callgsubr
          -237 -323 vlineto
          hintmask 11011100
          230 394 callgsubr
          -531 vlineto
          366 callgsubr
        </CharString>
        <CharString name="I">
          -46 callgsubr
          endchar
        </CharString>
        <CharString name="Iacute">
          18 callsubr
          52 143 callsubr
          -239 -271 204 callsubr
        </CharString>
        <CharString name="Icircumflex">
          -14 callgsubr
          151 72 384 callgsubr
          hintmask 11001000
          -64 callgsubr
          hintmask 10101000
          -59 callsubr
          hintmask 11011000
          -43 callsubr
          -62 88 rmoveto
          44 -42 118 callgsubr
        </CharString>
        <CharString name="Idieresis">
          -46 callgsubr
          28 83 -87 callgsubr
        </CharString>
        <CharString name="Idotaccent">
          -46 callgsubr
          129 83 -19 callgsubr
        </CharString>
        <CharString name="Igrave">
          18 callsubr
          270 692 123 callgsubr
          -232 -89 204 callsubr
        </CharString>
        <CharString name="Imacron">
          -233 -7 callsubr
          65 497 callgsubr
          128 93 hintmask 11010100
          30 759 rmoveto
          6 -44 rlineto
          248 hlineto
          hintmask 11001100
          47 34 rlineto
          hintmask 11010100
          -5 35 rlineto
          -183 hlineto
          -31 -43 -5 -20 -39 hvcurveto
          21 -156 -64 callsubr
          hintmask 10110100
          -59 callsubr
          hintmask 11010100
          -43 callsubr
          endchar
        </CharString>
        <CharString name="Iogonek">
          -259 -254 68 186 2 callsubr
          hstemhm
          40 73 2 93 hintmask 11100100
          38 603 rmoveto
          77 -9 rlineto
          -531 259 callsubr
          125 hlineto
          hintmask 11101000
          -76 -43 -45 -56 -53 418 callsubr
          49 49 46 70 34 vhcurveto
          hintmask 11010100
          72 -49 callsubr
          -59 callsubr
          hintmask 11100100
          -43 callsubr
          endchar
        </CharString>
        <CharString name="Iota">
          -46 callgsubr
          endchar
        </CharString>
        <CharString name="Iotaacute">
          9 callsubr
          -210 368 callsubr
          hintmask 10011000
          -97 callsubr
          endchar
        </CharString>
        <CharString name="Iotaasper">
          264 callsubr
          -165 -13 callsubr
          160 93 hintmask 11000010
          -64 callgsubr
          hintmask 10100010
          -59 callsubr
          hintmask 11001010
          -43 callsubr
          -100 -232 -77 callsubr
          hintmask 10010110
          -81 callsubr
          hintmask 10011010
          -39 -9 -27 -36 -40 vvcurveto
          hintmask 11001010
          217 callgsubr
        </CharString>
        <CharString name="Iotaasperacute">
          264 callsubr
          -321 549 callsubr
          hintmask 11000010
          -64 callgsubr
          hintmask 10100010
          -59 callsubr
          hintmask 11000010
          441 callgsubr
          368 callsubr
          hintmask 10011010
          -97 callsubr
          271 callsubr
          hintmask 10010110
          -81 callsubr
          hintmask 10011010
          -89 callgsubr
        </CharString>
        <CharString name="Iotaaspergrave">
          264 callsubr
          -327 -13 callsubr
          322 93 hintmask 11000010
          -64 callgsubr
          hintmask 10100010
          -59 callsubr
          hintmask 11000010
          441 callgsubr
          331 callgsubr
          hintmask 10011010
          84 callgsubr
          hintmask 10010110
          -81 callsubr
          hintmask 10011010
          -89 callgsubr
        </CharString>
        <CharString name="Iotaaspertilde">
          -259 0 -33 callsubr
          545.5 122 callsubr
          -215 -13 callsubr
          210 93 hintmask 10100001
          -45 callsubr
          hintmask 10010001
          -59 callsubr
          hintmask 10100001
          -62 callgsubr
          hintmask 11000001
          580 callsubr
          hintmask 10001001
          44 25 33 73 13 hvcurveto
          -28 10 rlineto
          hintmask 11000001
          -99 callgsubr
          hintmask 10100101
          -44 -249 -77 callsubr
          hintmask 10100011
          -81 callsubr
          hintmask 10100101
          -89 callgsubr
        </CharString>
        <CharString name="Iotabreve">
          -14 callgsubr
          52 68 384 callgsubr
          29 75 hintmask 11011000
          -64 callgsubr
          hintmask 10111000
          -59 callsubr
          hintmask 11011000
          -43 callsubr
          132 52 rmoveto
          hintmask 11011100
          130 callgsubr
          hintmask 11011000
          366 callsubr
        </CharString>
        <CharString name="Iotadieresis">
          -46 callgsubr
          32 83 -87 callgsubr
        </CharString>
        <CharString name="Iotagrave">
          9 callsubr
          -220 331 callgsubr
          hintmask 10011000
          523 callgsubr
        </CharString>
        <CharString name="Iotalenis">
          264 callsubr
          -99 68 146 93 hintmask 11000100
          -64 callgsubr
          hintmask 10100100
          529 169 callsubr
          -194 -203 -1 callgsubr
          hintmask 10011100
          68 34 36 63 54 vvcurveto
          40 -27 36 -39 9 vhcurveto
          -35 -17 -13 -24 -6 -35 52 -40 rcurveline
          hintmask 11001100
          -68 callsubr
          endchar
        </CharString>
        <CharString name="Iotalenisacute">
          264 callsubr
          -251 68 298 93 hintmask 11000100
          -64 callgsubr
          hintmask 10100100
          -59 callsubr
          hintmask 11000100
          441 callgsubr
          368 callsubr
          hintmask 10011100
          -97 callsubr
          -200 -207 -105 callsubr
        </CharString>
        <CharString name="Iotalenisgrave">
          264 callsubr
          -270 68 317 93 hintmask 11000100
          -64 callgsubr
          hintmask 10100100
          -59 callsubr
          hintmask 11000100
          441 callgsubr
          331 callgsubr
          hintmask 10011100
          -63 callsubr
        </CharString>
        <CharString name="Iotalenistilde">
          -259 0 -33 callsubr
          545.5 122 callsubr
          -159 68 206 93 hintmask 10100010
          -45 callsubr
          hintmask 10010010
          -59 callsubr
          hintmask 10100010
          -62 callgsubr
          hintmask 11000010
          580 callsubr
          hintmask 10001010
          44 25 33 73 13 hvcurveto
          -28 10 rlineto
          hintmask 11000010
          -99 callgsubr
          hintmask 10100110
          -148 -220 -105 callsubr
        </CharString>
        <CharString name="Iotawithmacron">
          -14 callgsubr
          92 69 -35 35 384 callgsubr
          hintmask 11010100
          -64 callgsubr
          hintmask 10110100
          -59 callsubr
          hintmask 11010100
          -43 callsubr
          -59 136 380 callsubr
          hintmask 11001100
          47 34 rlineto
          hintmask 11010100
          363 callgsubr
        </CharString>
        <CharString name="Iotawithtonos">
          9 callsubr
          -210 368 callsubr
          hintmask 10011000
          -97 callsubr
          endchar
        </CharString>
        <CharString name="J">
          -247 597.5 -33 callsubr
          -32 32 hstemhm
          139 93 hintmask 10100000
          42 603 rmoveto
          97 -11 rlineto
          -464 vlineto
          -144 -59 -62 -84 -53 vhcurveto
          36 -51 rlineto
          99 58 101 77 128 vvcurveto
          hintmask 01100000
          506 -82 callsubr
          hintmask 10100000
          -6 32 rlineto
          -268 hlineto
          endchar
        </CharString>
        <CharString name="K">
          18 callgsubr
        </CharString>
        <CharString name="KORONIS">
          306 callsubr
          179 68 vstem
          123 558 -105 callsubr
        </CharString>
        <CharString name="Kappa">
          18 callgsubr
        </CharString>
        <CharString name="Kcommaaccent">
          57 0 50 -50 517 callsubr
          -51 51 445 callsubr
          122 75 hintmask 01100110
          37 603 rmoveto
          78 -69 callsubr
          180 vlineto
          66 71 225 -309 rlineto
          138 hlineto
          hintmask 10001110
          1 48 -58 4 -243 324 202 216 24 8 25 8 21 10 rlinecurve
          hintmask 01100110
          -6 32 rlineto
          -217 hlineto
          hintmask 01010110
          -1 -47 70 -8 -247 -265 rlineto
          hintmask 01001110
          257 -82 callsubr
          hintmask 01100110
          -6 32 rlineto
          -249 hlineto
          259 -889 -55 callsubr
        </CharString>
        <CharString name="L">
          151 callsubr
          hintmask 10101000
          38 603 159 callgsubr
          endchar
        </CharString>
        <CharString name="Lacute">
          151 callsubr
          hintmask 10101000
          50 143 callsubr
          -237 -271 159 callgsubr
          endchar
        </CharString>
        <CharString name="Lamda">
          102 0 51 -51 53 hstemhm
          -20 716 hintmask 01100000
          290 647 rmoveto
          7 -18 -234 -567 -29 -9 -29 -9 -25 121 callgsubr
          258 hlineto
          1 47 -105 12 190 485 189 -477 -32 -10 -36 -11 -30 -14 230 callgsubr
          268 hlineto
          hintmask 10100000
          1 47 -73 8 -254 619 rlineto
          endchar
        </CharString>
        <CharString name="Lcaron">
          151 callsubr
          227 84 hintmask 10101100
          38 603 rmoveto
          77 -9 rlineto
          -531 259 callsubr
          486 hlineto
          hintmask 01101100
          9 48 4 89 -1 62 -56 4 rcurveline
          hintmask 10011100
          484 callsubr
          520 -82 callsubr
          hintmask 10101100
          -43 callsubr
          354 -100 93 callgsubr
        </CharString>
        <CharString name="Lcommaaccent">
          151 callsubr
          29 75 hintmask 10101000
          38 603 159 callgsubr
          hintmask 10101100
          165 -889 -55 callsubr
        </CharString>
        <CharString name="Lslash">
          -30 0 72 -72 201 397.5 -47 callgsubr
          hstemhm
          131 93 hintmask 10101000
          54 603 rmoveto
          77 -9 rlineto
          -277 vlineto
          -101 -59 33 -59 68 40 rlineto
          -176 137 callsubr
          226 vlineto
          150 87 11 53 -18 23 -143 -84 rlineto
          215 -82 callsubr
          hintmask 10101000
          -43 callsubr
          endchar
        </CharString>
        <CharString name="M">
          -5 callsubr
        </CharString>
        <CharString name="Mu">
          -5 callsubr
        </CharString>
        <CharString name="N">
          68 callgsubr
          hstemhm
          115 75 364 76 hintmask 10100110
          30 32 -17 callgsubr
        </CharString>
        <CharString name="NULL">
          endchar
        </CharString>
        <CharString name="Nacute">
          68 callgsubr
          hstemhm
          115 75 364 76 hintmask 10100110
          243 143 callsubr
          -438 -842 -17 callgsubr
        </CharString>
        <CharString name="Ncaron">
          68 callgsubr
          54 65 51 callgsubr
          146 778 rmoveto
          hintmask 10100111
          0 callsubr
        </CharString>
        <CharString name="Ncommaaccent">
          68 callgsubr
          hstemhm
          115 75 158 75 131 76 hintmask 10100111
          245 callgsubr
          hintmask 01100111
          355 -568 rlineto
          hintmask 10001111
          103 11 rlineto
          587 -82 callsubr
          hintmask 10100111
          32 callgsubr
          hintmask 10010111
          -1 -47 65 -8 rlineto
          -532 vlineto
          hintmask 10100111
          115 callgsubr
          285 -271 -55 callsubr
        </CharString>
        <CharString name="Ntilde">
          68 callgsubr
          134 78 51 callgsubr
          hintmask 10100111
          436 671 rmoveto
          -30 callsubr
          endchar
        </CharString>
        <CharString name="Nu">
          68 callgsubr
          hstemhm
          115 75 364 76 hintmask 10100110
          30 32 -17 callgsubr
        </CharString>
        <CharString name="O">
          -72 callgsubr
          endchar
        </CharString>
        <CharString name="OE">
          287 -11 70 -59 59 -59 70 -70 181 107.5 74 218 511 callgsubr
          -57 70 hstemhm
          20 102 317 93 -93 314 hintmask 0100101110000000
          122 326 rmoveto
          100 37 102 64 47 vhcurveto
          12 33 38 6 39 hhcurveto
          37 38 -6 -11 31 hvcurveto
          -504 vlineto
          -13 -28 -35 0 -35 hhcurveto
          -153 -66 132 135 hvcurveto
          hintmask 1000110110000000
          206 -337 rmoveto
          hintmask 0010110110000000
          34 35 3 8 32 hvcurveto
          391 hlineto
          hintmask 0001110110000000
          73 callsubr
          hintmask 0010110110000000
          -26 -108 -221 -10 rlineto
          228 vlineto
          hintmask 0010110101000000
          221 -9 rlineto
          87 vlineto
          hintmask 0010110110000000
          -221 -17 rlineto
          231 vlineto
          212 -9 12 -91 rlineto
          54 hlineto
          11 61 2 71 -3 33 rrcurveto
          -367 hlineto
          hintmask 0010101110000000
          9 -33 -34 4 -33 hhcurveto
          -148 -185 -91 -238 hvcurveto
          hintmask 1000110110000000
          -245 154 -100 154 vhcurveto
          endchar
        </CharString>
        <CharString name="Oacute">
          -72 callgsubr
          -133 698 266 callgsubr
        </CharString>
        <CharString name="Ocircumflex">
          255 callgsubr
          131 72 76 callgsubr
          -208 687 rmoveto
          44 -42 118 callgsubr
        </CharString>
        <CharString name="Odieresis">
          -72 callgsubr
          85 682 166 callsubr
        </CharString>
        <CharString name="Ograve">
          -72 callgsubr
          85 641 123 callgsubr
          endchar
        </CharString>
        <CharString name="Ohungarumlaut">
          -72 callgsubr
          17 706 175 callsubr
          -324 -158 175 callsubr
          endchar
        </CharString>
        <CharString name="Omacron">
          255 callgsubr
          72 497 callgsubr
          20 102 407 103 hintmask 11101100
          329 -20 -100 callgsubr
          -209 735 380 callsubr
          hintmask 11011100
          47 34 rlineto
          hintmask 11101100
          363 callgsubr
        </CharString>
        <CharString name="Omega">
          186 0 254 callgsubr
          hstemhm
          86 384 callsubr
          hintmask 10111000
          -93 callgsubr
          hintmask 01111000
          73 callgsubr
          hintmask 10111000
          -81 callgsubr
          hintmask 01111000
          147 callgsubr
          hintmask 10111000
          86 callsubr
          endchar
        </CharString>
        <CharString name="Omegaacute">
          186 0 47 callgsubr
          86 384 callsubr
          hintmask 10101100
          -93 callgsubr
          hintmask 01101100
          73 callgsubr
          hintmask 10101100
          -81 callgsubr
          hintmask 01101100
          147 callgsubr
          hintmask 10101100
          86 callsubr
          -106 435 rmoveto
          35 -17 rlineto
          hintmask 10011100
          -97 callsubr
          endchar
        </CharString>
        <CharString name="Omegaasper">
          186 0 47 callgsubr
          -68 -13 callsubr
          34 384 callsubr
          hintmask 10100011
          -93 callgsubr
          hintmask 01100011
          73 callgsubr
          hintmask 10100011
          -81 callgsubr
          hintmask 01100011
          147 callgsubr
          hintmask 10100011
          86 callsubr
          hintmask 10101011
          4 418 -77 callsubr
          hintmask 10010111
          -81 callsubr
          hintmask 10011011
          -39 -9 -27 -36 -40 vvcurveto
          hintmask 10101011
          217 callgsubr
        </CharString>
        <CharString name="Omegaasperacute">
          186 0 47 callgsubr
          -224 -13 callsubr
          190 384 callsubr
          hintmask 10100011
          -93 callgsubr
          hintmask 01100011
          73 callgsubr
          hintmask 10100011
          -81 callgsubr
          hintmask 01100011
          147 callgsubr
          hintmask 10100011
          86 callsubr
          -106 435 rmoveto
          35 -17 rlineto
          hintmask 10011011
          -97 callsubr
          271 callsubr
          hintmask 10010111
          -81 callsubr
          hintmask 10011011
          -89 callgsubr
        </CharString>
        <CharString name="Omegaasperacuteiotasub">
          504 callsubr
          420 69 -16 -20 hstemhm
          -224 -13 callsubr
          190 384 callsubr
          hintmask 1110100011000000
          -93 callgsubr
          hintmask 1101100011000000
          73 callgsubr
          hintmask 1110100011000000
          -81 callgsubr
          hintmask 1101100011000000
          147 callgsubr
          hintmask 1110100011000000
          86 callsubr
          -106 435 rmoveto
          35 -17 rlineto
          hintmask 1110011011000000
          -97 callsubr
          424 -879 -94 callgsubr
          -534 233 callsubr
        </CharString>
        <CharString name="Omegaaspergrave">
          186 0 47 callgsubr
          -230 -13 callsubr
          196 384 callsubr
          hintmask 10100011
          -93 callgsubr
          hintmask 01100011
          73 callgsubr
          hintmask 10100011
          -81 callgsubr
          hintmask 01100011
          147 callgsubr
          hintmask 10100011
          86 callsubr
          -106 364 callsubr
          hintmask 10011011
          84 callgsubr
          hintmask 10010111
          -81 callsubr
          hintmask 10011011
          -89 callgsubr
        </CharString>
        <CharString name="Omegaaspergraveiotasub">
          504 callsubr
          420 69 -16 -20 hstemhm
          -230 -13 callsubr
          196 384 callsubr
          hintmask 1110100011000000
          -93 callgsubr
          hintmask 1101100011000000
          73 callgsubr
          hintmask 1110100011000000
          -81 callgsubr
          hintmask 1101100011000000
          147 callgsubr
          hintmask 1110100011000000
          86 callsubr
          -106 364 callsubr
          hintmask 1110011011000000
          -73 callsubr
          488 -846 -94 callgsubr
          -540 233 callsubr
        </CharString>
        <CharString name="Omegaasperiotasub">
          504 callsubr
          420 69 -16 -20 hstemhm
          -68 -13 callsubr
          34 384 callsubr
          hintmask 1110100011000000
          -93 callgsubr
          hintmask 1101100011000000
          73 callgsubr
          hintmask 1110100011000000
          -81 callgsubr
          hintmask 1101100011000000
          147 callgsubr
          hintmask 1110100011000000
          86 callsubr
          382 -225 -94 callgsubr
          hintmask 1110101011000000
          -378 643 -77 callsubr
          hintmask 1110010111000000
          -81 callsubr
          hintmask 1110011011000000
          -39 -9 -27 -36 -40 vvcurveto
          hintmask 1110101011000000
          217 callgsubr
        </CharString>
        <CharString name="Omegaaspertilde">
          186 0 71 -71 181 417 73 -70 69 -12 -20 32 -20 hstemhm
          -118 -13 callsubr
          84 384 callsubr
          hintmask 1001000011000000
          -93 callgsubr
          hintmask 0101000011000000
          73 callgsubr
          hintmask 1001000011000000
          -81 callgsubr
          hintmask 0101000011000000
          147 callgsubr
          hintmask 1001000011000000
          86 callsubr
          hintmask 1010000011000000
          -2 542 rmoveto
          hintmask 1000010011000000
          44 25 33 73 13 hvcurveto
          hintmask 1000100011000000
          -28 10 rlineto
          hintmask 1010000011000000
          -99 callgsubr
          hintmask 1001001011000000
          -44 -249 -77 callsubr
          hintmask 1001000111000000
          -81 callsubr
          hintmask 1001001011000000
          -89 callgsubr
        </CharString>
        <CharString name="Omegaaspertildeiotasub">
          504 callsubr
          417 73 -70 69 -12 -20 32 -20 hstemhm
          -118 -13 callsubr
          84 384 callsubr
          hintmask 1110010000110000
          -93 callgsubr
          hintmask 1101010000110000
          73 callgsubr
          hintmask 1110010000110000
          -81 callgsubr
          hintmask 1101010000110000
          147 callgsubr
          hintmask 1110010000110000
          86 callsubr
          hintmask 1110100000110000
          -2 542 rmoveto
          hintmask 1110000100110000
          44 25 33 73 13 hvcurveto
          hintmask 1110001000110000
          -28 10 rlineto
          hintmask 1110100000110000
          -99 callgsubr
          hintmask 1110010010110000
          384 -767 -94 callgsubr
          -428 518 -77 callsubr
          hintmask 1110010001110000
          -81 callsubr
          hintmask 1110010010110000
          -89 callgsubr
        </CharString>
        <CharString name="Omegagrave">
          186 0 47 callgsubr
          86 384 callsubr
          hintmask 10101100
          -93 callgsubr
          hintmask 01101100
          73 callgsubr
          hintmask 10101100
          -81 callgsubr
          hintmask 01101100
          147 callgsubr
          hintmask 10101100
          86 callsubr
          -116 364 callsubr
          hintmask 10011100
          523 callgsubr
        </CharString>
        <CharString name="Omegaiotasub">
          504 callsubr
          420 69 hstemhm
          86 384 callsubr
          hintmask 11101110
          -93 callgsubr
          hintmask 11011110
          73 callgsubr
          hintmask 11101110
          -81 callgsubr
          hintmask 11011110
          147 callgsubr
          hintmask 11101110
          86 callsubr
          382 -225 -94 callgsubr
          endchar
        </CharString>
        <CharString name="Omegalenis">
          186 0 47 callgsubr
          -2 68 20 384 callsubr
          hintmask 10100110
          -93 callgsubr
          hintmask 01100110
          73 callgsubr
          hintmask 10100110
          -81 callgsubr
          hintmask 01100110
          147 callgsubr
          hintmask 10100110
          86 callsubr
          hintmask 10011110
          -90 447 -105 callsubr
        </CharString>
        <CharString name="Omegalenisacute">
          186 0 47 callgsubr
          -154 68 172 384 callsubr
          hintmask 10100110
          -93 callgsubr
          hintmask 01100110
          73 callgsubr
          hintmask 10100110
          -81 callgsubr
          hintmask 01100110
          147 callgsubr
          hintmask 10100110
          86 callsubr
          -106 435 rmoveto
          35 -17 rlineto
          hintmask 10011110
          -97 callsubr
          -200 -207 -105 callsubr
        </CharString>
        <CharString name="Omegalenisacuteiotasub">
          504 callsubr
          420 69 -16 -20 hstemhm
          -154 68 172 384 callsubr
          hintmask 1110100110000000
          -93 callgsubr
          hintmask 1101100110000000
          73 callgsubr
          hintmask 1110100110000000
          -81 callgsubr
          hintmask 1101100110000000
          147 callgsubr
          hintmask 1110100110000000
          86 callsubr
          -106 435 rmoveto
          35 -17 584 callgsubr
          -97 callsubr
          424 -879 -94 callgsubr
          -624 672 -105 callsubr
        </CharString>
        <CharString name="Omegalenisgrave">
          186 0 47 callgsubr
          -173 68 191 384 callsubr
          hintmask 10100110
          -93 callgsubr
          hintmask 01100110
          73 callgsubr
          hintmask 10100110
          -81 callgsubr
          hintmask 01100110
          147 callgsubr
          hintmask 10100110
          86 callsubr
          -106 364 callsubr
          hintmask 10011110
          -63 callsubr
        </CharString>
        <CharString name="Omegalenisgraveiotasub">
          504 callsubr
          420 69 -16 -20 hstemhm
          -173 68 191 384 callsubr
          hintmask 1110100110000000
          -93 callgsubr
          hintmask 1101100110000000
          73 callgsubr
          hintmask 1110100110000000
          -81 callgsubr
          hintmask 1101100110000000
          147 callgsubr
          hintmask 1110100110000000
          86 callsubr
          -106 364 callsubr
          hintmask 1110011110000000
          -73 callsubr
          488 -846 -94 callgsubr
          -643 672 -105 callsubr
        </CharString>
        <CharString name="Omegalenisiotasub">
          504 callsubr
          420 69 -16 -20 hstemhm
          -2 68 20 384 callsubr
          hintmask 1110100110000000
          -93 callgsubr
          hintmask 1101100110000000
          73 callgsubr
          hintmask 1110100110000000
          -81 callgsubr
          hintmask 1101100110000000
          147 callgsubr
          hintmask 1110100110000000
          86 callsubr
          382 -225 -94 callgsubr
          hintmask 1110011110000000
          -472 672 -105 callsubr
        </CharString>
        <CharString name="Omegalenistilde">
          186 0 71 -71 181 417 73 -70 69 -12 -20 32 -20 hstemhm
          -62 68 80 384 callsubr
          hintmask 1001000110000000
          -93 callgsubr
          hintmask 0101000110000000
          73 callgsubr
          hintmask 1001000110000000
          -81 callgsubr
          hintmask 0101000110000000
          147 callgsubr
          hintmask 1001000110000000
          86 callsubr
          hintmask 1010000110000000
          -2 542 rmoveto
          hintmask 1000010110000000
          44 25 33 73 13 hvcurveto
          hintmask 1000100110000000
          -28 10 rlineto
          hintmask 1010000110000000
          -99 callgsubr
          hintmask 1001001110000000
          -148 -220 -105 callsubr
        </CharString>
        <CharString name="Omegalenistildeiotasub">
          504 callsubr
          417 73 -70 69 -12 -20 32 -20 hstemhm
          -62 68 80 384 callsubr
          hintmask 1110010001100000
          -93 callgsubr
          hintmask 1101010001100000
          73 callgsubr
          hintmask 1110010001100000
          -81 callgsubr
          hintmask 1101010001100000
          147 callgsubr
          hintmask 1110010001100000
          86 callsubr
          hintmask 1110100001100000
          -2 542 rmoveto
          hintmask 1110000101100000
          44 25 33 73 13 hvcurveto
          hintmask 1110001001100000
          -28 10 rlineto
          hintmask 1110100001100000
          -99 callgsubr
          hintmask 1110010011100000
          384 -767 -94 callgsubr
          -532 547 -105 callsubr
        </CharString>
        <CharString name="Omegawithtonos">
          186 0 47 callgsubr
          86 384 callsubr
          hintmask 10101100
          -93 callgsubr
          hintmask 01101100
          73 callgsubr
          hintmask 10101100
          -81 callgsubr
          hintmask 01101100
          147 callgsubr
          hintmask 10101100
          86 callsubr
          -106 435 rmoveto
          35 -17 rlineto
          hintmask 10011100
          -97 callsubr
          endchar
        </CharString>
        <CharString name="Omicron">
          -72 callgsubr
          endchar
        </CharString>
        <CharString name="Omicronacute">
          25 callgsubr
        </CharString>
        <CharString name="Omicronasper">
          185 callsubr
          -128 -13 callsubr
          28 102 407 103 hintmask 11010110
          329 -20 -100 callgsubr
          -371 367 -77 callsubr
          hintmask 10101110
          -81 callsubr
          hintmask 10110110
          -39 -9 -27 -36 -40 vvcurveto
          hintmask 11010110
          217 callgsubr
        </CharString>
        <CharString name="Omicronasperacute">
          185 callsubr
          -284 -13 callsubr
          184 102 407 103 hintmask 11000110
          75 callgsubr
          hintmask 10110110
          -97 callsubr
          271 callsubr
          hintmask 10101110
          -81 callsubr
          hintmask 10110110
          -89 callgsubr
        </CharString>
        <CharString name="Omicronaspergrave">
          185 callsubr
          -290 -13 callsubr
          190 102 407 103 hintmask 11000110
          329 -20 -100 callgsubr
          -481 552 109 callsubr
          hintmask 10110110
          84 callgsubr
          hintmask 10101110
          -81 callsubr
          hintmask 10110110
          -89 callgsubr
        </CharString>
        <CharString name="Omicrongrave">
          185 callsubr
          20 102 407 103 hintmask 11011000
          329 -20 -100 callgsubr
          -491 552 109 callsubr
          hintmask 10111000
          523 callgsubr
        </CharString>
        <CharString name="Omicronlenis">
          185 callsubr
          -62 68 14 102 407 103 hintmask 11001100
          329 -20 -100 callgsubr
          hintmask 10111100
          -465 396 -105 callsubr
        </CharString>
        <CharString name="Omicronlenisacute">
          185 callsubr
          -214 68 166 102 407 103 hintmask 11001100
          75 callgsubr
          hintmask 10111100
          -97 callsubr
          -200 -207 -105 callsubr
        </CharString>
        <CharString name="Omicronlenisgrave">
          185 callsubr
          -233 68 185 102 407 103 hintmask 11001100
          329 -20 -100 callgsubr
          -481 552 109 callsubr
          hintmask 10111100
          -63 callsubr
        </CharString>
        <CharString name="Omicronwithtonos">
          25 callgsubr
        </CharString>
        <CharString name="Oslash">
          58 -20 71 -31 -21 602 69 hstemhm
          20 102 407 103 hintmask 01111000
          118 -47 rmoveto
          61 -34 41 80 rlineto
          hintmask 10111000
          -13 35 37 -6 37 hhcurveto
          101 callsubr
          121 -42 93 -64 59 hvcurveto
          53 103 -60 36 -50 -97 rlineto
          25 -45 -51 13 -52 hhcurveto
          -172 -129 -140 -209 hvcurveto
          hintmask 01111000
          -140 58 -96 80 -54 vhcurveto
          -36 304 rmoveto
          105 36 102 55 42 vhcurveto
          12 35 32 5 29 hhcurveto
          50 40 -15 -26 33 hvcurveto
          -233 -450 rlineto
          -53 55 -24 85 85 vvcurveto
          hintmask 10111000
          225 -284 rmoveto
          -34 -30 7 11 -26 hvcurveto
          224 434 rlineto
          32 -53 16 -69 -69 vvcurveto
          -115 -43 -96 -62 -40 vhcurveto
          -7 -28 -25 -3 -24 hhcurveto
          endchar
        </CharString>
        <CharString name="Otilde">
          255 callgsubr
          114 78 76 callgsubr
          90 652 rmoveto
          -30 callsubr
          endchar
        </CharString>
        <CharString name="P">
          21 callsubr
        </CharString>
        <CharString name="Phi">
          97 -8 53 50 57 353 57 582 callgsubr
          -47 callgsubr
          hstemhm
          20 102 179 89 179 102 hintmask 11110111
          569 324 rmoveto
          -60 -19 -49 -35 -34 vhcurveto
          -29 -16 -45 -11 -51 -2 rrcurveto
          352 vlineto
          111 -14 68 -67 -99 vvcurveto
          -447 9 rmoveto
          60 19 49 35 34 vhcurveto
          29 16 45 11 51 2 rrcurveto
          -352 vlineto
          -111 14 -68 67 99 vvcurveto
          98 280 rmoveto
          81 -9 rlineto
          -42 vlineto
          -172 -13 -109 -93 -138 vvcurveto
          -131 107 -84 174 -8 vhcurveto
          -39 vlineto
          -42 -13 -25 -10 -22 -9 6 -32 rcurveline
          272 hlineto
          1 47 -101 12 rlineto
          44 vlineto
          172 13 109 93 138 vvcurveto
          131 -107 84 -174 8 vhcurveto
          hintmask 11101111
          34 vlineto
          42 13 25 10 22 9 rrcurveto
          hintmask 11110111
          -6 32 rlineto
          -252 hlineto
          endchar
        </CharString>
        <CharString name="Pi">
          149 0 -33 callsubr
          530.5 67 59 callsubr
          hstemhm
          115 93 315 93 hintmask 11001100
          -45 callsubr
          525 315 -520 -57 callsubr
          hintmask 10011100
          -59 callsubr
          hintmask 11001100
          -6 32 rlineto
          -656 hlineto
          hintmask 10101100
          -13 callgsubr
          -531 vlineto
          hintmask 11001100
          366 callgsubr
        </CharString>
        <CharString name="Psi">
          204 0 -33 callsubr
          532.5 69 -55.5 -47 callgsubr
          hstemhm
          355 93 hintmask 10101000
          270 32 392 callgsubr
          -71 callsubr
          153 vlineto
          128 15 75 68 25 128 rrcurveto
          hintmask 11001000
          32 163 rlineto
          84 hlineto
          hintmask 10011000
          6 33 rlineto
          hintmask 11001000
          23 -30 -35 13 -35 hhcurveto
          -47 -31 -35 -63 -10 hvcurveto
          -18 -117 -10 -63 -27 -64 -20 -19 rlinecurve
          -27 -17 -30 -7 -30 -4 rrcurveto
          hintmask 10011000
          322 vlineto
          24 8 19 8 37 15 rrcurveto
          hintmask 10101000
          -6 32 rlineto
          -243 409 callgsubr
          -327 vlineto
          -78 14 -48 45 -16 113 rrcurveto
          hintmask 11001000
          -17 117 rlineto
          64 -9 -32 34 -50 hhcurveto
          -35 -35 -13 -23 -30 hvcurveto
          6 -33 rlineto
          84 hlineto
          32 -165 25 -128 74 -68 129 -13 rlinecurve
          -149 vlineto
          hintmask 10101000
          -38 -12 -23 -8 -24 -10 rrcurveto
          endchar
        </CharString>
        <CharString name="Q">
          97 239 callgsubr
          hstem
          20 102 407 103 vstem
          347 51 rmoveto
          -159 -66 142 142 105 36 102 55 42 hvcurveto
          12 35 32 5 29 hhcurveto
          151 69 -143 -146 -115 -43 -96 -62 -40 hvcurveto
          -7 -28 -25 -3 -24 hhcurveto
          -18 -71 rmoveto
          21 21 2 4 20 hvcurveto
          321 -148 39 98 -279 79 rlineto
          91 48 69 99 155 vvcurveto
          227 -147 126 -164 -172 -129 -140 -209 -229 155 -112 154 vhcurveto
          endchar
        </CharString>
        <CharString name="R">
          9 callgsubr
          endchar
        </CharString>
        <CharString name="Racute">
          9 callgsubr
          139 717 266 callgsubr
        </CharString>
        <CharString name="Rcaron">
          89 callgsubr
          74 65 384 callgsubr
          251 102 hintmask 0111000110000000
          -9 callsubr
          hintmask 1010100110000000
          161 callsubr
          hintmask 0110010110000000
          -279 -8 rlineto
          hintmask 0110100110000000
          226 callgsubr
          hintmask 0111000110000000
          115 callgsubr
          72 778 rmoveto
          hintmask 0110101110000000
          0 callsubr
        </CharString>
        <CharString name="Rcommaaccent">
          89 callgsubr
          384 callgsubr
          59 75 117 102 hintmask 0111001110000000
          -9 callsubr
          hintmask 1010101110000000
          161 callsubr
          hintmask 0110011110000000
          -279 -8 rlineto
          hintmask 0110101110000000
          226 callgsubr
          hintmask 0111001110000000
          115 callgsubr
          hintmask 0110101110000000
          204 -271 -55 callsubr
        </CharString>
        <CharString name="Rho">
          21 callsubr
        </CharString>
        <CharString name="Rhoasper">
          -13 0 47 -47 61 -61 63 182 58 288.5 251 callsubr
          24 -20 hstemhm
          -133 -13 callsubr
          128 93 251 102 hintmask 1001100000110000
          381 599 rmoveto
          52 -25 26 -58 -62 vvcurveto
          -76 -42 -75 -107 -19 -43 3 6 -40 vhcurveto
          272 333 callsubr
          288 hlineto
          1 47 rlineto
          hintmask 0101010000110000
          -117 14 rlineto
          184 125 vlineto
          152 76 104 102 103 -78 104 -159 hvcurveto
          hintmask 1001001000110000
          -279 -8 rlineto
          hintmask 0011010000110000
          226 callgsubr
          hintmask 1001100000110000
          115 callgsubr
          hintmask 1001010010110000
          -59 386 -77 callsubr
          hintmask 1001000101110000
          -81 callsubr
          hintmask 1001000110110000
          -39 -9 -27 -36 -40 vvcurveto
          hintmask 1001010010110000
          217 callgsubr
        </CharString>
        <CharString name="S">
          -61 -20 68 424 callsubr
          hintmask 11101000
          312 callgsubr
          hintmask 11110000
          2 callgsubr
          hintmask 11101000
          113 callsubr
          endchar
        </CharString>
        <CharString name="Sacute">
          -61 -20 68 424 callsubr
          hintmask 11101000
          312 callgsubr
          hintmask 11110000
          2 callgsubr
          hintmask 11101000
          113 callsubr
          -107 769 266 callgsubr
        </CharString>
        <CharString name="Scaron">
          -61 -20 68 557 65 34 65 hstemhm
          60 93 236 59 -55 95 hintmask 11010100
          312 callgsubr
          hintmask 11011000
          2 callgsubr
          hintmask 11010100
          113 callsubr
          -174 830 rmoveto
          hintmask 11110100
          0 callsubr
        </CharString>
        <CharString name="Scedilla">
          -61 337 callsubr
          42 65 424 callsubr
          hintmask 11111010
          56 49 rmoveto
          36 -37 72 -22 61 -7 -43 -49 rcurveline
          156 callsubr
          50 callgsubr
          25 39 rlineto
          111 4 100 70 118 vvcurveto
          446 callsubr
          vhcurveto
          309 callgsubr
          hintmask 11111100
          2 callgsubr
          hintmask 11111010
          0 callgsubr
          endchar
        </CharString>
        <CharString name="Scommaaccent">
          -61 -20 68 557 65 hstemhm
          60 93 69 75 92 59 -55 95 hintmask 11110100
          312 callgsubr
          hintmask 11111000
          2 callgsubr
          hintmask 11110100
          113 callsubr
          -78 349 callgsubr
        </CharString>
        <CharString name="Sigma">
          -14 0 80 -80 193 390.5 66.5 -45 45 hstemhm
          38 493 hintmask 10101000
          38 42 rmoveto
          16 -42 rlineto
          461 hlineto
          hintmask 01101000
          8 44 10 93 -2 54 -53 4 rcurveline
          hintmask 10101000
          -28 -114 -302 -2 197 267 -176 243 270 -11 12 -93 rlineto
          54 hlineto
          11 61 2 71 -3 33 rrcurveto
          -447 hlineto
          hintmask 10011000
          -22 -45 203 -282 rlineto
          endchar
        </CharString>
        <CharString name="T">
          44 callsubr
        </CharString>
        <CharString name="Tau">
          44 callsubr
        </CharString>
        <CharString name="Tcaron">
          3 0 171 callgsubr
          48 65 hstemhm
          252 93 hintmask 11000100
          21 487 rmoveto
          54 hlineto
          hintmask 10100100
          53 callgsubr
          hintmask 11000100
          13 -100 rlineto
          54 hlineto
          hintmask 10010100
          170 callsubr
          hintmask 11000100
          -3 -33 2 -75 11 -61 rrcurveto
          101 323 rmoveto
          hintmask 10101100
          0 callsubr
        </CharString>
        <CharString name="Theta">
          255 callgsubr
          hstem
          20 102 61 273 73 103 vstem
          183 291 rmoveto
          273 -9 rlineto
          92 vlineto
          -273 -22 rlineto
          146 -372 -100 callgsubr
          endchar
        </CharString>
        <CharString name="Thorn">
          -25 0 -33 callsubr
          102.5 64 244 54 81 52 -35 35 hstemhm
          120 93 235 101 hintmask 11110110
          368 463 rmoveto
          54 -27 26 -46 -51 vvcurveto
          -63 -41 -57 -134 -24 -19 2 2 -17 vhcurveto
          213 vlineto
          -175 167 rmoveto
          82 -10 rlineto
          -526 vlineto
          -20 -6 -49 -15 -21 -11 6 -35 rcurveline
          273 -49 callsubr
          97 87 vlineto
          165 84 85 95 86 -70 96 -159 hvcurveto
          -107 hlineto
          hintmask 11101110
          65 vlineto
          18 5 53 16 22 12 rrcurveto
          hintmask 11110110
          -6 35 rlineto
          -261 hlineto
          endchar
        </CharString>
        <CharString name="U">
          54 callsubr
          364 -18 -63 callgsubr
          endchar
        </CharString>
        <CharString name="Uacute">
          54 callsubr
          245 143 callsubr
          -106 -892 -63 callgsubr
          endchar
        </CharString>
        <CharString name="Ucircumflex">
          58 callsubr
          151 72 hstemhm
          87 93 351 74 hintmask 11000110
          423 callsubr
          hintmask 10010110
          294 -82 callsubr
          hintmask 11000110
          -6 32 rlineto
          -241 hlineto
          -1 -47 89 -10 rlineto
          -320 vlineto
          -99 -24 -66 -44 -31 vhcurveto
          -12 -28 -29 -8 -38 hhcurveto
          -119 -69 78 138 hvcurveto
          hintmask 10010110
          314 -82 callsubr
          hintmask 11000110
          -43 callsubr
          hintmask 10100110
          441 callsubr
          hintmask 11000110
          -196 113 -105 164 vhcurveto
          -194 756 rmoveto
          44 -42 rlineto
          hintmask 11001110
          118 callgsubr
        </CharString>
        <CharString name="Udieresis">
          54 callsubr
          364 -18 -63 callgsubr
          -104 751 -87 callgsubr
        </CharString>
        <CharString name="Ugrave">
          54 callsubr
          463 692 123 callgsubr
          -99 -710 -63 callgsubr
          endchar
        </CharString>
        <CharString name="Uhungarumlaut">
          54 callsubr
          215 757 175 callsubr
          36 -158 175 callsubr
          -175 -933 -63 callgsubr
          endchar
        </CharString>
        <CharString name="Umacron">
          58 callsubr
          92 497 callgsubr
          87 93 351 74 hintmask 11001011
          423 callsubr
          hintmask 10011011
          294 -82 callsubr
          hintmask 11001011
          -6 32 rlineto
          -241 hlineto
          -1 -47 89 -10 rlineto
          -320 vlineto
          -99 -24 -66 -44 -31 vhcurveto
          -12 -28 -29 -8 -38 hhcurveto
          -119 -69 78 138 hvcurveto
          hintmask 10011011
          314 -82 callsubr
          hintmask 11001011
          -43 callsubr
          hintmask 10101011
          441 callsubr
          hintmask 11001011
          -196 113 -105 164 vhcurveto
          -195 804 380 callsubr
          hintmask 11000111
          47 34 rlineto
          hintmask 11001011
          363 callgsubr
        </CharString>
        <CharString name="Uogonek">
          106 -254 68 168 56 callgsubr
          hstemhm
          87 93 85 73 193 74 hintmask 11100111
          383 -254 rmoveto
          116 54 -17 39 rlineto
          -94 -51 -50 34 49 vvcurveto
          45 41 42 60 33 vhcurveto
          106 27 60 94 181 vvcurveto
          hintmask 11001111
          294 -82 callsubr
          hintmask 11100111
          -6 32 rlineto
          -241 hlineto
          -1 -47 89 -10 rlineto
          -320 vlineto
          -99 -24 -66 -44 -31 vhcurveto
          -12 -28 -29 -8 -38 hhcurveto
          -119 -69 78 138 hvcurveto
          hintmask 11001111
          314 -82 callsubr
          hintmask 11100111
          -43 callsubr
          hintmask 11010111
          441 callsubr
          -193 110 -105 160 -3 vhcurveto
          -58 -40 -34 -48 -46 vvcurveto
          hintmask 11100111
          -53 43 -53 75 4 vhcurveto
          endchar
        </CharString>
        <CharString name="Upsilon">
          8 callsubr
          hstemhm
          257 93 hintmask 10110000
          -86 callgsubr
          hintmask 11010000
          433 callsubr
          hintmask 10110000
          176 callgsubr
          endchar
        </CharString>
        <CharString name="Upsilonacute">
          8 callsubr
          hstemhm
          257 93 hintmask 10110000
          -86 callgsubr
          hintmask 11010000
          433 callsubr
          hintmask 10110000
          176 callgsubr
          -442 276 -20 callgsubr
        </CharString>
</ttFont>
